<svg width="240" height="241" viewBox="0 0 240 241" fill="none" xmlns="http://www.w3.org/2000/svg">
<mask id="mask0_422_31464" style="mask-type:alpha" maskUnits="userSpaceOnUse" x="0" y="0" width="240" height="241">
<rect y="0.5" width="240" height="240" fill="#D9D9D9"/>
</mask>
<g mask="url(#mask0_422_31464)">
<path d="M20 200.5V172.5C20 167 21.4167 161.833 24.25 157C27.0833 152.166 31 148.5 36 146C44.5 141.666 54.0833 138 64.75 135C75.4167 132 87.1667 130.5 100 130.5C105 130.5 109.875 130.75 114.625 131.25C119.375 131.75 124 132.5 128.5 133.5L111 151C109.167 150.666 107.375 150.5 105.625 150.5H100C88.1667 150.5 77.5417 151.916 68.125 154.75C58.7083 157.583 51 160.666 45 164C43.5 164.833 42.2917 166 41.375 167.5C40.4583 169 40 170.666 40 172.5V180.5H102.5L122.5 200.5H20ZM155.5 204.5L121 170L135 156L155.5 176.5L206 126L220 140L155.5 204.5ZM100 120.5C89 120.5 79.5833 116.583 71.75 108.75C63.9167 100.916 60 91.4998 60 80.4998C60 69.4998 63.9167 60.0831 71.75 52.2498C79.5833 44.4164 89 40.4998 100 40.4998C111 40.4998 120.417 44.4164 128.25 52.2498C136.083 60.0831 140 69.4998 140 80.4998C140 91.4998 136.083 100.916 128.25 108.75C120.417 116.583 111 120.5 100 120.5ZM100 100.5C105.5 100.5 110.208 98.5414 114.125 94.6248C118.042 90.7081 120 85.9998 120 80.4998C120 74.9998 118.042 70.2914 114.125 66.3748C110.208 62.4581 105.5 60.4998 100 60.4998C94.5 60.4998 89.7917 62.4581 85.875 66.3748C81.9583 70.2914 80 74.9998 80 80.4998C80 85.9998 81.9583 90.7081 85.875 94.6248C89.7917 98.5414 94.5 100.5 100 100.5Z" fill="black" fill-opacity="0.2"/>
</g>
</svg>
