<svg width="144" height="134" viewBox="0 0 144 134" fill="none" xmlns="http://www.w3.org/2000/svg">
<g filter="url(#filter0_d_430_494)">
<rect x="4" width="136" height="126" rx="15" fill="#5089FD"/>
<rect x="4.7" y="0.7" width="134.6" height="124.6" rx="14.3" stroke="#BDCEF2" stroke-opacity="0.5" stroke-width="1.4"/>
</g>
<rect x="15" y="13" width="32" height="32" rx="16" fill="#DBEAFE"/>
<path d="M27.7409 33L25.454 29.9815H25.0563V33H23.2985V25.7273H25.0563V28.5504H25.3368L27.5882 25.7273H29.7864L26.9846 29.1612L29.932 33H27.7409ZM30.5739 25.7273H32.7507L34.5973 30.2301H34.6825L36.5291 25.7273H38.706V33H36.9943V28.5327H36.9339L35.1868 32.9538H34.093L32.3459 28.5078H32.2855V33H30.5739V25.7273Z" fill="#2563EB"/>
<circle cx="113" cy="24" r="11" fill="#FF7F41"/>
<path d="M113.02 19.6H114.46V28H112.804V21.352L111.22 21.796L110.812 20.38L113.02 19.6Z" fill="white"/>
<path d="M20.3705 75.6H22.0145V84H20.3705V80.52H17.2505V84H15.5945V75.6H17.2505V78.936H20.3705V75.6ZM28.6149 83.256C27.9989 83.864 27.2469 84.168 26.3589 84.168C25.4709 84.168 24.7189 83.864 24.1029 83.256C23.4949 82.64 23.1909 81.888 23.1909 81C23.1909 80.112 23.4949 79.364 24.1029 78.756C24.7189 78.14 25.4709 77.832 26.3589 77.832C27.2469 77.832 27.9989 78.14 28.6149 78.756C29.2309 79.364 29.5389 80.112 29.5389 81C29.5389 81.888 29.2309 82.64 28.6149 83.256ZM25.1949 82.188C25.5069 82.5 25.8949 82.656 26.3589 82.656C26.8229 82.656 27.2109 82.5 27.5229 82.188C27.8349 81.876 27.9909 81.48 27.9909 81C27.9909 80.52 27.8349 80.124 27.5229 79.812C27.2109 79.5 26.8229 79.344 26.3589 79.344C25.8949 79.344 25.5069 79.5 25.1949 79.812C24.8909 80.124 24.7389 80.52 24.7389 81C24.7389 81.48 24.8909 81.876 25.1949 82.188ZM34.9479 80.928C35.5079 81.2 35.7879 81.656 35.7879 82.296C35.7879 82.8 35.6119 83.212 35.2599 83.532C34.9159 83.844 34.4239 84 33.7839 84H30.6279V78H33.5439C34.1759 78 34.6639 78.156 35.0079 78.468C35.3599 78.78 35.5359 79.188 35.5359 79.692C35.5359 80.22 35.3399 80.632 34.9479 80.928ZM33.3999 79.272H32.0799V80.352H33.3999C33.8399 80.352 34.0599 80.172 34.0599 79.812C34.0599 79.452 33.8399 79.272 33.3999 79.272ZM33.6039 82.692C34.0519 82.692 34.2759 82.5 34.2759 82.116C34.2759 81.948 34.2159 81.816 34.0959 81.72C33.9759 81.624 33.8119 81.576 33.6039 81.576H32.0799V82.692H33.6039ZM41.8688 83.256C41.2528 83.864 40.5008 84.168 39.6128 84.168C38.7248 84.168 37.9728 83.864 37.3568 83.256C36.7488 82.64 36.4448 81.888 36.4448 81C36.4448 80.112 36.7488 79.364 37.3568 78.756C37.9728 78.14 38.7248 77.832 39.6128 77.832C40.5008 77.832 41.2528 78.14 41.8688 78.756C42.4848 79.364 42.7928 80.112 42.7928 81C42.7928 81.888 42.4848 82.64 41.8688 83.256ZM38.4488 82.188C38.7608 82.5 39.1488 82.656 39.6128 82.656C40.0768 82.656 40.4648 82.5 40.7768 82.188C41.0888 81.876 41.2448 81.48 41.2448 81C41.2448 80.52 41.0888 80.124 40.7768 79.812C40.4648 79.5 40.0768 79.344 39.6128 79.344C39.1488 79.344 38.7608 79.5 38.4488 79.812C38.1448 80.124 37.9928 80.52 37.9928 81C37.9928 81.48 38.1448 81.876 38.4488 82.188ZM45.1898 81.636C45.3978 82.388 45.9618 82.764 46.8818 82.764C47.4738 82.764 47.9218 82.564 48.2258 82.164L49.4738 82.884C48.8818 83.74 48.0098 84.168 46.8578 84.168C45.8658 84.168 45.0698 83.868 44.4698 83.268C43.8698 82.668 43.5698 81.912 43.5698 81C43.5698 80.096 43.8658 79.344 44.4578 78.744C45.0498 78.136 45.8098 77.832 46.7378 77.832C47.6178 77.832 48.3418 78.136 48.9098 78.744C49.4858 79.352 49.7738 80.104 49.7738 81C49.7738 81.2 49.7538 81.412 49.7138 81.636H45.1898ZM45.1658 80.436H48.2258C48.1378 80.028 47.9538 79.724 47.6738 79.524C47.4018 79.324 47.0898 79.224 46.7378 79.224C46.3218 79.224 45.9778 79.332 45.7058 79.548C45.4338 79.756 45.2538 80.052 45.1658 80.436ZM56.7105 84.168C55.8065 84.168 55.0505 83.864 54.4425 83.256C53.8425 82.648 53.5425 81.896 53.5425 81C53.5425 80.104 53.8425 79.352 54.4425 78.744C55.0505 78.136 55.8065 77.832 56.7105 77.832C57.2945 77.832 57.8265 77.972 58.3065 78.252C58.7865 78.532 59.1505 78.908 59.3985 79.38L58.0665 80.16C57.9465 79.912 57.7625 79.716 57.5145 79.572C57.2745 79.428 57.0025 79.356 56.6985 79.356C56.2345 79.356 55.8505 79.512 55.5465 79.824C55.2425 80.128 55.0905 80.52 55.0905 81C55.0905 81.472 55.2425 81.864 55.5465 82.176C55.8505 82.48 56.2345 82.632 56.6985 82.632C57.0105 82.632 57.2865 82.564 57.5265 82.428C57.7745 82.284 57.9585 82.088 58.0785 81.84L59.4225 82.608C59.1585 83.08 58.7865 83.46 58.3065 83.748C57.8265 84.028 57.2945 84.168 56.7105 84.168ZM65.2595 83.256C64.6435 83.864 63.8915 84.168 63.0035 84.168C62.1155 84.168 61.3635 83.864 60.7475 83.256C60.1395 82.64 59.8355 81.888 59.8355 81C59.8355 80.112 60.1395 79.364 60.7475 78.756C61.3635 78.14 62.1155 77.832 63.0035 77.832C63.8915 77.832 64.6435 78.14 65.2595 78.756C65.8755 79.364 66.1835 80.112 66.1835 81C66.1835 81.888 65.8755 82.64 65.2595 83.256ZM61.8395 82.188C62.1515 82.5 62.5395 82.656 63.0035 82.656C63.4675 82.656 63.8555 82.5 64.1675 82.188C64.4795 81.876 64.6355 81.48 64.6355 81C64.6355 80.52 64.4795 80.124 64.1675 79.812C63.8555 79.5 63.4675 79.344 63.0035 79.344C62.5395 79.344 62.1515 79.5 61.8395 79.812C61.5355 80.124 61.3835 80.52 61.3835 81C61.3835 81.48 61.5355 81.876 61.8395 82.188ZM72.3845 83.256C71.7685 83.864 71.0165 84.168 70.1285 84.168C69.2405 84.168 68.4885 83.864 67.8725 83.256C67.2645 82.64 66.9605 81.888 66.9605 81C66.9605 80.112 67.2645 79.364 67.8725 78.756C68.4885 78.14 69.2405 77.832 70.1285 77.832C71.0165 77.832 71.7685 78.14 72.3845 78.756C73.0005 79.364 73.3085 80.112 73.3085 81C73.3085 81.888 73.0005 82.64 72.3845 83.256ZM68.9645 82.188C69.2765 82.5 69.6645 82.656 70.1285 82.656C70.5925 82.656 70.9805 82.5 71.2925 82.188C71.6045 81.876 71.7605 81.48 71.7605 81C71.7605 80.52 71.6045 80.124 71.2925 79.812C70.9805 79.5 70.5925 79.344 70.1285 79.344C69.6645 79.344 69.2765 79.5 68.9645 79.812C68.6605 80.124 68.5085 80.52 68.5085 81C68.5085 81.48 68.6605 81.876 68.9645 82.188ZM77.2415 84.168C76.2975 84.168 75.5335 83.864 74.9495 83.256C74.3735 82.648 74.0855 81.876 74.0855 80.94C74.0855 79.916 74.2375 79.128 74.5415 78.576C74.8455 78.016 75.4575 77.508 76.3775 77.052C76.5135 76.988 76.7055 76.9 76.9535 76.788C77.2015 76.668 77.3695 76.584 77.4575 76.536C77.5535 76.488 77.6815 76.416 77.8415 76.32C78.0015 76.224 78.1135 76.14 78.1775 76.068C78.2495 75.988 78.3255 75.888 78.4055 75.768C78.4855 75.648 78.5495 75.516 78.5975 75.372L79.8695 76.104C79.7655 76.592 79.5295 76.972 79.1615 77.244C78.8015 77.508 78.2575 77.78 77.5295 78.06C77.0175 78.26 76.6455 78.46 76.4135 78.66C76.1815 78.86 76.0135 79.1 75.9095 79.38C76.3575 78.924 76.9575 78.696 77.7095 78.696C78.3735 78.696 78.9655 78.94 79.4855 79.428C80.0055 79.908 80.2655 80.548 80.2655 81.348C80.2655 82.172 79.9855 82.848 79.4255 83.376C78.8735 83.904 78.1455 84.168 77.2415 84.168ZM76.1375 82.344C76.4335 82.616 76.7975 82.752 77.2295 82.752C77.6615 82.752 78.0175 82.62 78.2975 82.356C78.5775 82.092 78.7175 81.756 78.7175 81.348C78.7175 80.94 78.5775 80.604 78.2975 80.34C78.0175 80.068 77.6575 79.932 77.2175 79.932C76.8255 79.932 76.4735 80.056 76.1615 80.304C75.8575 80.552 75.7055 80.884 75.7055 81.3C75.7055 81.724 75.8495 82.072 76.1375 82.344ZM89.606 82.548H90.398V85.608H88.886V84H81.206V78H82.754V82.548H84.626V78H86.174V82.548H88.058V78H89.606V82.548ZM92.4515 81.636C92.6595 82.388 93.2235 82.764 94.1435 82.764C94.7355 82.764 95.1835 82.564 95.4875 82.164L96.7355 82.884C96.1435 83.74 95.2715 84.168 94.1195 84.168C93.1275 84.168 92.3315 83.868 91.7315 83.268C91.1315 82.668 90.8315 81.912 90.8315 81C90.8315 80.096 91.1275 79.344 91.7195 78.744C92.3115 78.136 93.0715 77.832 93.9995 77.832C94.8795 77.832 95.6035 78.136 96.1715 78.744C96.7475 79.352 97.0355 80.104 97.0355 81C97.0355 81.2 97.0155 81.412 96.9755 81.636H92.4515ZM92.4275 80.436H95.4875C95.3995 80.028 95.2155 79.724 94.9355 79.524C94.6635 79.324 94.3515 79.224 93.9995 79.224C93.5835 79.224 93.2395 79.332 92.9675 79.548C92.6955 79.756 92.5155 80.052 92.4275 80.436ZM102.052 78H103.6V84H102.052V81.72H99.6642V84H98.1162V78H99.6642V80.268H102.052V78ZM109.351 78H110.503V84H108.991V80.592L106.171 84H105.019V78H106.531V81.408L109.351 78ZM113.229 81.636C113.437 82.388 114.001 82.764 114.921 82.764C115.513 82.764 115.961 82.564 116.265 82.164L117.513 82.884C116.921 83.74 116.049 84.168 114.897 84.168C113.905 84.168 113.109 83.868 112.509 83.268C111.909 82.668 111.609 81.912 111.609 81C111.609 80.096 111.905 79.344 112.497 78.744C113.089 78.136 113.849 77.832 114.777 77.832C115.657 77.832 116.381 78.136 116.949 78.744C117.525 79.352 117.813 80.104 117.813 81C117.813 81.2 117.793 81.412 117.753 81.636H113.229ZM113.205 80.436H116.265C116.177 80.028 115.993 79.724 115.713 79.524C115.441 79.324 115.129 79.224 114.777 79.224C114.361 79.224 114.017 79.332 113.745 79.548C113.473 79.756 113.293 80.052 113.205 80.436Z" fill="white"/>
<defs>
<filter id="filter0_d_430_494" x="0" y="0" width="144" height="134" filterUnits="userSpaceOnUse" color-interpolation-filters="sRGB">
<feFlood flood-opacity="0" result="BackgroundImageFix"/>
<feColorMatrix in="SourceAlpha" type="matrix" values="0 0 0 0 0 0 0 0 0 0 0 0 0 0 0 0 0 0 127 0" result="hardAlpha"/>
<feOffset dy="4"/>
<feGaussianBlur stdDeviation="2"/>
<feComposite in2="hardAlpha" operator="out"/>
<feColorMatrix type="matrix" values="0 0 0 0 0 0 0 0 0 0 0 0 0 0 0 0 0 0 0.25 0"/>
<feBlend mode="normal" in2="BackgroundImageFix" result="effect1_dropShadow_430_494"/>
<feBlend mode="normal" in="SourceGraphic" in2="effect1_dropShadow_430_494" result="shape"/>
</filter>
</defs>
</svg>
