<svg width="86" height="86" viewBox="0 0 86 86" fill="none" xmlns="http://www.w3.org/2000/svg">
<rect x="2" y="2" width="82" height="82" rx="12" fill="#FF7F41"/>
<rect x="1" y="1" width="84" height="84" rx="13" stroke="#FF7F41" stroke-opacity="0.75" stroke-width="2"/>
<path opacity="0.8" d="M44.0208 63.043C32.9754 63.043 24.0208 54.0886 24.0208 43.0425C24.0208 31.9964 32.9744 23.043 44.0208 23.043" fill="white"/>
<path d="M44.256 63.043C41.47 63.043 38.1876 54.4736 38.1876 43.4275C38.1876 32.3814 41.47 23.043 44.256 23.043C47.0419 23.043 48.7139 31.9974 48.7139 43.0425C48.7139 54.0876 47.0419 63.043 44.256 63.043Z" fill="white"/>
<path d="M59.827 45.0109C59.8829 46.6402 60.0368 48.265 60.2879 49.8774C60.3706 50.3926 60.4636 50.9077 60.598 51.414C60.6744 51.7101 60.7582 52.0417 60.9328 52.3023C61.0059 52.4178 61.114 52.5093 61.2429 52.5648C61.3061 52.5924 61.3748 52.6067 61.4444 52.6067C61.5139 52.6067 61.5827 52.5924 61.6459 52.5648C61.9229 52.4582 62.0531 52.1601 62.143 51.8878C62.2633 51.4928 62.3538 51.0901 62.4138 50.6827C62.648 49.2172 62.7977 47.7405 62.8623 46.2594C62.9649 44.3612 62.9746 42.461 62.8912 40.5589C62.8344 39.0132 62.6947 37.4712 62.4727 35.9391C62.409 35.4764 62.3183 35.0174 62.2009 34.5644C62.1213 34.2762 62.0211 33.9021 61.7337 33.7373C61.3607 33.5222 61.0103 33.7867 60.8532 34.1094C60.6957 34.4699 60.5789 34.8454 60.505 35.2296C60.2032 36.5806 60.0502 37.9683 59.9397 39.345C59.7894 41.2301 59.7518 43.1218 59.827 45.0109ZM61.6872 34.5624C61.712 34.5042 61.7637 34.4637 61.6872 34.5624V34.5624ZM61.7296 34.4765C61.7311 34.4738 61.7328 34.4711 61.7348 34.4686C61.7461 34.4607 61.7482 34.4627 61.7296 34.4765ZM61.186 34.5259C61.186 34.5417 61.1674 34.5259 61.1591 34.4686L61.1664 34.4795C61.1726 34.4953 61.1788 34.5111 61.186 34.5259ZM61.1602 34.4598C61.1597 34.4571 61.1597 34.4545 61.1602 34.4519C61.1599 34.4545 61.1599 34.4571 61.1602 34.4598V34.4598ZM61.1333 34.4321C61.1147 34.4124 61.1199 34.4153 61.1333 34.4321V34.4321ZM60.8067 40.776C60.846 39.9641 60.9073 39.1535 60.9907 38.3443C61.0279 37.99 61.0692 37.6367 61.1168 37.2843C61.1168 37.2389 61.1281 37.1945 61.1343 37.1491C61.1343 37.1373 61.1343 37.1284 61.1343 37.1215C61.1343 37.1146 61.1343 37.1057 61.1343 37.0948L61.1653 36.8807C61.1881 36.7307 61.2118 36.5816 61.2367 36.4336C61.2904 36.1148 61.3493 35.796 61.4206 35.4802L61.4423 35.5957C61.4899 35.8533 61.5302 36.1128 61.5684 36.3734V36.3902V36.4089C61.5746 36.4494 61.5798 36.4899 61.5849 36.5293C61.5942 36.5994 61.6035 36.6685 61.6118 36.7376C61.6325 36.8974 61.6511 37.0583 61.6697 37.2182C61.7523 37.9584 61.8144 38.6986 61.8609 39.4427C61.9828 41.2396 62.0162 43.0371 61.9611 44.8352C61.9167 46.3886 61.8195 47.944 61.6273 49.4866C61.6159 49.5705 61.6056 49.6534 61.5942 49.7373C61.5942 49.76 61.5787 49.8508 61.5756 49.8774C61.557 50.0067 61.5374 50.137 61.5167 50.2662C61.4892 50.4399 61.4585 50.613 61.4247 50.7854C61.3875 50.6176 61.3531 50.4492 61.3214 50.2801C61.2677 49.9968 61.2181 49.7136 61.1767 49.4284L61.1395 49.1718C61.1395 49.1718 61.1395 49.1599 61.1395 49.152C61.1333 49.1106 61.1281 49.0691 61.1219 49.0277C61.0992 48.8566 61.0775 48.6859 61.0568 48.5155C60.9652 47.7424 60.8963 46.9673 60.8501 46.1903C60.7334 44.3876 60.7189 42.5802 60.8067 40.776V40.776Z" fill="white"/>
<path d="M54.3171 59.8851C51.8166 59.8851 49.7894 52.3449 49.7894 43.0425C49.7894 33.7401 51.8166 26.2009 54.3171 26.2009C56.8177 26.2009 58.2104 33.7411 58.2104 43.0425C58.2104 52.3439 56.813 59.8851 54.3171 59.8851Z" fill="white"/>
</svg>
