<svg width="127" height="38" viewBox="0 0 127 38" fill="none" xmlns="http://www.w3.org/2000/svg">
<path d="M11.4332 10.074V28.47C11.4332 28.686 11.3912 28.89 11.3072 29.082C11.2352 29.262 11.1272 29.424 10.9832 29.568C10.8392 29.7 10.6712 29.808 10.4792 29.892C10.2872 29.964 10.0832 30 9.86725 30C9.43525 30 9.06925 29.85 8.76925 29.55C8.48125 29.25 8.33725 28.89 8.33725 28.47V10.074H2.27125C2.05525 10.074 1.85125 10.032 1.65925 9.948C1.47925 9.864 1.31725 9.75 1.17325 9.606C1.02925 9.462 0.915248 9.3 0.831248 9.12C0.759248 8.928 0.723248 8.724 0.723248 8.508C0.723248 8.076 0.873248 7.71 1.17325 7.41C1.47325 7.11 1.83925 6.96 2.27125 6.96H17.4992C17.9312 6.96 18.2972 7.116 18.5972 7.428C18.8972 7.728 19.0472 8.094 19.0472 8.526C19.0472 8.958 18.8972 9.324 18.5972 9.624C18.2972 9.924 17.9312 10.074 17.4992 10.074H11.4332ZM20.4715 23.034C20.5915 23.634 20.8075 24.186 21.1195 24.69C21.4435 25.182 21.8275 25.608 22.2715 25.968C22.7275 26.328 23.2375 26.61 23.8015 26.814C24.3775 27.018 24.9835 27.12 25.6195 27.12C26.3755 27.12 27.0775 26.994 27.7255 26.742C28.3735 26.49 28.9075 26.13 29.3275 25.662C29.6035 25.458 29.8675 25.338 30.1195 25.302C30.3835 25.254 30.6355 25.272 30.8755 25.356C31.0315 25.416 31.1695 25.506 31.2895 25.626C31.4095 25.734 31.5175 25.86 31.6135 26.004C31.8175 26.304 31.9075 26.646 31.8835 27.03C31.8595 27.414 31.6675 27.762 31.3075 28.074C31.0195 28.362 30.6835 28.638 30.2995 28.902C29.9275 29.166 29.5075 29.394 29.0395 29.586C28.5715 29.778 28.0555 29.928 27.4915 30.036C26.9275 30.156 26.3035 30.216 25.6195 30.216C24.4315 30.216 23.3155 29.994 22.2715 29.55C21.2275 29.094 20.3155 28.482 19.5355 27.714C18.7555 26.934 18.1375 26.022 17.6815 24.978C17.2375 23.934 17.0155 22.818 17.0155 21.63C17.0155 20.442 17.2375 19.326 17.6815 18.282C18.1375 17.238 18.7555 16.332 19.5355 15.564C20.3155 14.784 21.2275 14.172 22.2715 13.728C23.3155 13.272 24.4315 13.044 25.6195 13.044C26.7955 13.044 27.9055 13.266 28.9495 13.71C29.9935 14.154 30.9055 14.76 31.6855 15.528C32.4655 16.296 33.0835 17.202 33.5395 18.246C33.9955 19.278 34.2295 20.382 34.2415 21.558C34.2415 21.99 34.0975 22.344 33.8095 22.62C33.5335 22.896 33.1675 23.034 32.7115 23.034H20.4715ZM31.0555 20.442C30.9475 19.806 30.7315 19.23 30.4075 18.714C30.0835 18.186 29.6815 17.736 29.2015 17.364C28.7335 16.98 28.1995 16.686 27.5995 16.482C26.9995 16.266 26.3635 16.158 25.6915 16.158C25.0075 16.158 24.3655 16.266 23.7655 16.482C23.1655 16.698 22.6315 16.998 22.1635 17.382C21.6955 17.754 21.3055 18.204 20.9935 18.732C20.6935 19.248 20.4895 19.818 20.3815 20.442H31.0555ZM43.8183 26.886C44.2623 26.886 44.6283 27.048 44.9163 27.372C45.2043 27.684 45.3483 28.056 45.3483 28.488C45.3483 28.92 45.2043 29.28 44.9163 29.568C44.6283 29.856 44.2623 30 43.8183 30H43.7463C42.9303 30 42.1683 29.856 41.4603 29.568C40.7523 29.28 40.1403 28.884 39.6243 28.38C39.1083 27.864 38.7003 27.246 38.4003 26.526C38.1123 25.806 37.9683 25.008 37.9683 24.132V8.364C37.9683 7.92 38.1123 7.548 38.4003 7.248C38.6883 6.948 39.0423 6.798 39.4623 6.798C39.8943 6.798 40.2663 6.948 40.5783 7.248C40.9023 7.548 41.0643 7.92 41.0643 8.364V24.132C41.0763 25.02 41.3283 25.704 41.8203 26.184C42.3243 26.652 42.9903 26.886 43.8183 26.886ZM51.3907 23.034C51.5107 23.634 51.7267 24.186 52.0387 24.69C52.3627 25.182 52.7467 25.608 53.1907 25.968C53.6467 26.328 54.1567 26.61 54.7207 26.814C55.2967 27.018 55.9027 27.12 56.5387 27.12C57.2947 27.12 57.9967 26.994 58.6447 26.742C59.2927 26.49 59.8267 26.13 60.2467 25.662C60.5227 25.458 60.7867 25.338 61.0387 25.302C61.3027 25.254 61.5547 25.272 61.7947 25.356C61.9507 25.416 62.0887 25.506 62.2087 25.626C62.3287 25.734 62.4367 25.86 62.5327 26.004C62.7367 26.304 62.8267 26.646 62.8027 27.03C62.7787 27.414 62.5867 27.762 62.2267 28.074C61.9387 28.362 61.6027 28.638 61.2187 28.902C60.8467 29.166 60.4267 29.394 59.9587 29.586C59.4907 29.778 58.9747 29.928 58.4107 30.036C57.8467 30.156 57.2227 30.216 56.5387 30.216C55.3507 30.216 54.2347 29.994 53.1907 29.55C52.1467 29.094 51.2347 28.482 50.4547 27.714C49.6747 26.934 49.0567 26.022 48.6007 24.978C48.1567 23.934 47.9347 22.818 47.9347 21.63C47.9347 20.442 48.1567 19.326 48.6007 18.282C49.0567 17.238 49.6747 16.332 50.4547 15.564C51.2347 14.784 52.1467 14.172 53.1907 13.728C54.2347 13.272 55.3507 13.044 56.5387 13.044C57.7147 13.044 58.8247 13.266 59.8687 13.71C60.9127 14.154 61.8247 14.76 62.6047 15.528C63.3847 16.296 64.0027 17.202 64.4587 18.246C64.9147 19.278 65.1487 20.382 65.1607 21.558C65.1607 21.99 65.0167 22.344 64.7287 22.62C64.4527 22.896 64.0867 23.034 63.6307 23.034H51.3907ZM61.9747 20.442C61.8667 19.806 61.6507 19.23 61.3267 18.714C61.0027 18.186 60.6007 17.736 60.1207 17.364C59.6527 16.98 59.1187 16.686 58.5187 16.482C57.9187 16.266 57.2827 16.158 56.6107 16.158C55.9267 16.158 55.2847 16.266 54.6847 16.482C54.0847 16.698 53.5507 16.998 53.0827 17.382C52.6147 17.754 52.2247 18.204 51.9127 18.732C51.6127 19.248 51.4087 19.818 51.3007 20.442H61.9747ZM69.0856 21.612V8.418C69.0856 7.962 69.2356 7.578 69.5356 7.266C69.8356 6.954 70.2076 6.798 70.6516 6.798C71.0956 6.798 71.4616 6.954 71.7496 7.266C72.0376 7.578 72.1816 7.962 72.1816 8.418V15.042C72.9376 14.418 73.7776 13.932 74.7016 13.584C75.6256 13.224 76.6156 13.044 77.6716 13.044C78.8596 13.044 79.9696 13.272 81.0016 13.728C82.0456 14.172 82.9516 14.784 83.7196 15.564C84.4996 16.332 85.1116 17.238 85.5556 18.282C86.0116 19.326 86.2396 20.442 86.2396 21.63C86.2396 22.806 86.0116 23.916 85.5556 24.96C85.1116 26.004 84.4996 26.916 83.7196 27.696C82.9516 28.476 82.0456 29.094 81.0016 29.55C79.9696 29.994 78.8596 30.216 77.6716 30.216C76.4956 30.216 75.3856 29.994 74.3416 29.55C73.2976 29.094 72.3856 28.476 71.6056 27.696C70.8256 26.916 70.2076 26.004 69.7516 24.96C69.3076 23.916 69.0856 22.806 69.0856 21.63V21.612ZM72.1816 21.63C72.1816 22.374 72.3256 23.082 72.6136 23.754C72.9016 24.414 73.2916 24.996 73.7836 25.5C74.2756 25.992 74.8576 26.388 75.5296 26.688C76.2016 26.976 76.9156 27.12 77.6716 27.12C78.4396 27.12 79.1536 26.976 79.8136 26.688C80.4736 26.388 81.0496 25.992 81.5416 25.5C82.0336 24.996 82.4176 24.414 82.6936 23.754C82.9816 23.082 83.1256 22.374 83.1256 21.63C83.1256 20.874 82.9816 20.166 82.6936 19.506C82.4176 18.834 82.0336 18.252 81.5416 17.76C81.0496 17.256 80.4736 16.866 79.8136 16.59C79.1536 16.302 78.4396 16.158 77.6716 16.158C76.9156 16.158 76.2016 16.302 75.5296 16.59C74.8576 16.866 74.2756 17.256 73.7836 17.76C73.2916 18.252 72.9016 18.834 72.6136 19.506C72.3256 20.166 72.1816 20.874 72.1816 21.63ZM92.1281 21.63C92.1281 22.374 92.2721 23.082 92.5601 23.754C92.8481 24.414 93.2381 24.996 93.7301 25.5C94.2221 25.992 94.7981 26.388 95.4581 26.688C96.1301 26.976 96.8441 27.12 97.6001 27.12C98.3681 27.12 99.0821 26.976 99.7421 26.688C100.414 26.388 100.996 25.992 101.488 25.5C101.98 24.996 102.364 24.414 102.64 23.754C102.928 23.082 103.072 22.374 103.072 21.63C103.072 20.874 102.928 20.166 102.64 19.506C102.364 18.834 101.98 18.252 101.488 17.76C100.996 17.268 100.414 16.878 99.7421 16.59C99.0821 16.302 98.3681 16.158 97.6001 16.158C96.8441 16.158 96.1301 16.302 95.4581 16.59C94.7981 16.878 94.2221 17.268 93.7301 17.76C93.2381 18.252 92.8481 18.834 92.5601 19.506C92.2721 20.166 92.1281 20.874 92.1281 21.63ZM89.0141 21.63C89.0141 20.442 89.2361 19.326 89.6801 18.282C90.1361 17.238 90.7541 16.332 91.5341 15.564C92.3141 14.784 93.2261 14.172 94.2701 13.728C95.3141 13.272 96.4241 13.044 97.6001 13.044C98.7881 13.044 99.8981 13.272 100.93 13.728C101.974 14.172 102.88 14.784 103.648 15.564C104.428 16.332 105.04 17.238 105.484 18.282C105.94 19.326 106.168 20.442 106.168 21.63C106.168 22.818 105.94 23.934 105.484 24.978C105.04 26.01 104.428 26.916 103.648 27.696C102.88 28.476 101.974 29.094 100.93 29.55C99.8981 29.994 98.7881 30.216 97.6001 30.216C96.4241 30.216 95.3141 29.994 94.2701 29.55C93.2261 29.094 92.3141 28.476 91.5341 27.696C90.7541 26.916 90.1361 26.01 89.6801 24.978C89.2361 23.934 89.0141 22.818 89.0141 21.63ZM110.614 14.772C110.614 14.316 110.704 13.95 110.884 13.674C111.076 13.386 111.394 13.242 111.838 13.242C112.222 13.242 112.534 13.392 112.774 13.692C113.026 13.98 113.224 14.346 113.368 14.79L113.512 16.122C114.16 15.198 114.964 14.454 115.924 13.89C116.896 13.326 118 13.044 119.236 13.044C120.376 13.044 121.39 13.26 122.278 13.692C123.166 14.124 123.91 14.712 124.51 15.456C125.122 16.2 125.584 17.076 125.896 18.084C126.208 19.08 126.364 20.148 126.364 21.288V28.488C126.364 28.932 126.214 29.298 125.914 29.586C125.626 29.874 125.266 30.018 124.834 30.018C124.402 30.018 124.03 29.874 123.718 29.586C123.406 29.298 123.25 28.932 123.25 28.488V21.378C123.25 21.27 123.256 21.186 123.268 21.126C123.244 20.442 123.124 19.8 122.908 19.2C122.704 18.588 122.41 18.06 122.026 17.616C121.642 17.16 121.174 16.806 120.622 16.554C120.082 16.29 119.47 16.158 118.786 16.158C118.102 16.158 117.46 16.302 116.86 16.59C116.26 16.878 115.732 17.268 115.276 17.76C114.832 18.24 114.472 18.798 114.196 19.434C113.932 20.07 113.776 20.73 113.728 21.414V28.398C113.728 28.842 113.584 29.22 113.296 29.532C113.02 29.844 112.66 30 112.216 30C111.76 30 111.376 29.844 111.064 29.532C110.764 29.22 110.614 28.842 110.614 28.398V14.772Z" fill="white"/>
</svg>
