<svg width="195" height="44" viewBox="0 0 195 44" fill="none" xmlns="http://www.w3.org/2000/svg">
<path d="M24.0145 13V18.28H16.4545V41H10.9345V18.28H3.41453V13H24.0145ZM27.5833 33.12C28.2766 35.6267 30.1566 36.88 33.2233 36.88C35.1966 36.88 36.6899 36.2133 37.7033 34.88L41.8633 37.28C39.8899 40.1333 36.9833 41.56 33.1433 41.56C29.8366 41.56 27.1833 40.56 25.1833 38.56C23.1833 36.56 22.1833 34.04 22.1833 31C22.1833 27.9867 23.1699 25.48 25.1433 23.48C27.1166 21.4533 29.6499 20.44 32.7433 20.44C35.6766 20.44 38.0899 21.4533 39.9833 23.48C41.9033 25.5067 42.8633 28.0133 42.8633 31C42.8633 31.6667 42.7966 32.3733 42.6633 33.12H27.5833ZM27.5033 29.12H37.7033C37.4099 27.76 36.7966 26.7467 35.8633 26.08C34.9566 25.4133 33.9166 25.08 32.7433 25.08C31.3566 25.08 30.2099 25.44 29.3033 26.16C28.3966 26.8533 27.7966 27.84 27.5033 29.12ZM46.4655 41V11.8H51.6255V41H46.4655ZM60.7083 33.12C61.4016 35.6267 63.2816 36.88 66.3483 36.88C68.3216 36.88 69.8149 36.2133 70.8283 34.88L74.9883 37.28C73.0149 40.1333 70.1083 41.56 66.2683 41.56C62.9616 41.56 60.3083 40.56 58.3083 38.56C56.3083 36.56 55.3083 34.04 55.3083 31C55.3083 27.9867 56.2949 25.48 58.2683 23.48C60.2416 21.4533 62.7749 20.44 65.8683 20.44C68.8016 20.44 71.2149 21.4533 73.1083 23.48C75.0283 25.5067 75.9883 28.0133 75.9883 31C75.9883 31.6667 75.9216 32.3733 75.7883 33.12H60.7083ZM60.6283 29.12H70.8283C70.5349 27.76 69.9216 26.7467 68.9883 26.08C68.0816 25.4133 67.0416 25.08 65.8683 25.08C64.4816 25.08 63.3349 25.44 62.4283 26.16C61.5216 26.8533 60.9216 27.84 60.6283 29.12ZM91.2305 20.44C93.9238 20.44 96.2171 21.4667 98.1105 23.52C100.03 25.5467 100.99 28.04 100.99 31C100.99 33.96 100.03 36.4667 98.1105 38.52C96.2171 40.5467 93.9238 41.56 91.2305 41.56C88.4305 41.56 86.2705 40.5867 84.7505 38.64V41H79.5905V13H84.7505V23.36C86.2705 21.4133 88.4305 20.44 91.2305 20.44ZM86.3105 35.08C87.3505 36.12 88.6705 36.64 90.2705 36.64C91.8705 36.64 93.1905 36.12 94.2305 35.08C95.2971 34.0133 95.8305 32.6533 95.8305 31C95.8305 29.3467 95.2971 28 94.2305 26.96C93.1905 25.8933 91.8705 25.36 90.2705 25.36C88.6705 25.36 87.3505 25.8933 86.3105 26.96C85.2705 28 84.7505 29.3467 84.7505 31C84.7505 32.6533 85.2705 34.0133 86.3105 35.08ZM121.67 38.52C119.616 40.5467 117.11 41.56 114.15 41.56C111.19 41.56 108.683 40.5467 106.63 38.52C104.603 36.4667 103.59 33.96 103.59 31C103.59 28.04 104.603 25.5467 106.63 23.52C108.683 21.4667 111.19 20.44 114.15 20.44C117.11 20.44 119.616 21.4667 121.67 23.52C123.723 25.5467 124.75 28.04 124.75 31C124.75 33.96 123.723 36.4667 121.67 38.52ZM110.27 34.96C111.31 36 112.603 36.52 114.15 36.52C115.696 36.52 116.99 36 118.03 34.96C119.07 33.92 119.59 32.6 119.59 31C119.59 29.4 119.07 28.08 118.03 27.04C116.99 26 115.696 25.48 114.15 25.48C112.603 25.48 111.31 26 110.27 27.04C109.256 28.08 108.75 29.4 108.75 31C108.75 32.6 109.256 33.92 110.27 34.96ZM139.5 20.44C141.686 20.44 143.486 21.1733 144.9 22.64C146.34 24.1067 147.06 26.1333 147.06 28.72V41H141.9V29.36C141.9 28.0267 141.54 27.0133 140.82 26.32C140.1 25.6 139.14 25.24 137.94 25.24C136.606 25.24 135.54 25.6533 134.74 26.48C133.94 27.3067 133.54 28.5467 133.54 30.2V41H128.38V21H133.54V23.24C134.793 21.3733 136.78 20.44 139.5 20.44Z" fill="#292F51"/>
<path d="M24.0145 13V18.28H16.4545V41H10.9345V18.28H3.41453V13H24.0145ZM27.5833 33.12C28.2766 35.6267 30.1566 36.88 33.2233 36.88C35.1966 36.88 36.6899 36.2133 37.7033 34.88L41.8633 37.28C39.8899 40.1333 36.9833 41.56 33.1433 41.56C29.8366 41.56 27.1833 40.56 25.1833 38.56C23.1833 36.56 22.1833 34.04 22.1833 31C22.1833 27.9867 23.1699 25.48 25.1433 23.48C27.1166 21.4533 29.6499 20.44 32.7433 20.44C35.6766 20.44 38.0899 21.4533 39.9833 23.48C41.9033 25.5067 42.8633 28.0133 42.8633 31C42.8633 31.6667 42.7966 32.3733 42.6633 33.12H27.5833ZM27.5033 29.12H37.7033C37.4099 27.76 36.7966 26.7467 35.8633 26.08C34.9566 25.4133 33.9166 25.08 32.7433 25.08C31.3566 25.08 30.2099 25.44 29.3033 26.16C28.3966 26.8533 27.7966 27.84 27.5033 29.12ZM46.4655 41V11.8H51.6255V41H46.4655ZM60.7083 33.12C61.4016 35.6267 63.2816 36.88 66.3483 36.88C68.3216 36.88 69.8149 36.2133 70.8283 34.88L74.9883 37.28C73.0149 40.1333 70.1083 41.56 66.2683 41.56C62.9616 41.56 60.3083 40.56 58.3083 38.56C56.3083 36.56 55.3083 34.04 55.3083 31C55.3083 27.9867 56.2949 25.48 58.2683 23.48C60.2416 21.4533 62.7749 20.44 65.8683 20.44C68.8016 20.44 71.2149 21.4533 73.1083 23.48C75.0283 25.5067 75.9883 28.0133 75.9883 31C75.9883 31.6667 75.9216 32.3733 75.7883 33.12H60.7083ZM60.6283 29.12H70.8283C70.5349 27.76 69.9216 26.7467 68.9883 26.08C68.0816 25.4133 67.0416 25.08 65.8683 25.08C64.4816 25.08 63.3349 25.44 62.4283 26.16C61.5216 26.8533 60.9216 27.84 60.6283 29.12ZM91.2305 20.44C93.9238 20.44 96.2171 21.4667 98.1105 23.52C100.03 25.5467 100.99 28.04 100.99 31C100.99 33.96 100.03 36.4667 98.1105 38.52C96.2171 40.5467 93.9238 41.56 91.2305 41.56C88.4305 41.56 86.2705 40.5867 84.7505 38.64V41H79.5905V13H84.7505V23.36C86.2705 21.4133 88.4305 20.44 91.2305 20.44ZM86.3105 35.08C87.3505 36.12 88.6705 36.64 90.2705 36.64C91.8705 36.64 93.1905 36.12 94.2305 35.08C95.2971 34.0133 95.8305 32.6533 95.8305 31C95.8305 29.3467 95.2971 28 94.2305 26.96C93.1905 25.8933 91.8705 25.36 90.2705 25.36C88.6705 25.36 87.3505 25.8933 86.3105 26.96C85.2705 28 84.7505 29.3467 84.7505 31C84.7505 32.6533 85.2705 34.0133 86.3105 35.08ZM121.67 38.52C119.616 40.5467 117.11 41.56 114.15 41.56C111.19 41.56 108.683 40.5467 106.63 38.52C104.603 36.4667 103.59 33.96 103.59 31C103.59 28.04 104.603 25.5467 106.63 23.52C108.683 21.4667 111.19 20.44 114.15 20.44C117.11 20.44 119.616 21.4667 121.67 23.52C123.723 25.5467 124.75 28.04 124.75 31C124.75 33.96 123.723 36.4667 121.67 38.52ZM110.27 34.96C111.31 36 112.603 36.52 114.15 36.52C115.696 36.52 116.99 36 118.03 34.96C119.07 33.92 119.59 32.6 119.59 31C119.59 29.4 119.07 28.08 118.03 27.04C116.99 26 115.696 25.48 114.15 25.48C112.603 25.48 111.31 26 110.27 27.04C109.256 28.08 108.75 29.4 108.75 31C108.75 32.6 109.256 33.92 110.27 34.96ZM139.5 20.44C141.686 20.44 143.486 21.1733 144.9 22.64C146.34 24.1067 147.06 26.1333 147.06 28.72V41H141.9V29.36C141.9 28.0267 141.54 27.0133 140.82 26.32C140.1 25.6 139.14 25.24 137.94 25.24C136.606 25.24 135.54 25.6533 134.74 26.48C133.94 27.3067 133.54 28.5467 133.54 30.2V41H128.38V21H133.54V23.24C134.793 21.3733 136.78 20.44 139.5 20.44Z" fill="url(#paint0_linear_401_159)" fill-opacity="0.59"/>
<g filter="url(#filter0_d_401_159)">
<path d="M146 8C146 3.58172 149.582 0 154 0H183C187.418 0 191 3.58172 191 8V9C191 13.4183 187.418 17 183 17H146V8Z" fill="#FF7F41"/>
</g>
<path d="M158.748 7.918C159.177 8.142 159.513 8.45 159.756 8.842C159.999 9.234 160.12 9.68667 160.12 10.2C160.12 11.0027 159.835 11.67 159.266 12.202C158.697 12.734 158.001 13 157.18 13H152.98V3.2H156.872C157.675 3.2 158.351 3.46133 158.902 3.984C159.462 4.49733 159.742 5.14133 159.742 5.916C159.742 6.76533 159.411 7.43267 158.748 7.918ZM156.872 4.712H154.59V7.288H156.872C157.227 7.288 157.525 7.16667 157.768 6.924C158.011 6.672 158.132 6.364 158.132 6C158.132 5.636 158.011 5.33267 157.768 5.09C157.525 4.838 157.227 4.712 156.872 4.712ZM157.18 11.488C157.553 11.488 157.866 11.3573 158.118 11.096C158.379 10.8253 158.51 10.4987 158.51 10.116C158.51 9.73333 158.379 9.41133 158.118 9.15C157.866 8.87933 157.553 8.744 157.18 8.744H154.59V11.488H157.18ZM162.685 10.144C162.797 10.676 163.054 11.0867 163.455 11.376C163.857 11.656 164.347 11.796 164.925 11.796C165.728 11.796 166.33 11.5067 166.731 10.928L167.977 11.656C167.287 12.6733 166.265 13.182 164.911 13.182C163.773 13.182 162.853 12.8367 162.153 12.146C161.453 11.446 161.103 10.564 161.103 9.5C161.103 8.45467 161.449 7.582 162.139 6.882C162.83 6.17267 163.717 5.818 164.799 5.818C165.826 5.818 166.666 6.17733 167.319 6.896C167.982 7.61467 168.313 8.48733 168.313 9.514C168.313 9.67267 168.295 9.88267 168.257 10.144H162.685ZM162.671 8.912H166.787C166.685 8.34267 166.447 7.91333 166.073 7.624C165.709 7.33467 165.28 7.19 164.785 7.19C164.225 7.19 163.759 7.344 163.385 7.652C163.012 7.96 162.774 8.38 162.671 8.912ZM173.331 7.456H171.595V10.816C171.595 11.1053 171.66 11.3153 171.791 11.446C171.922 11.5673 172.113 11.6373 172.365 11.656C172.626 11.6653 172.948 11.6607 173.331 11.642V13C172.174 13.14 171.343 13.042 170.839 12.706C170.335 12.3607 170.083 11.7307 170.083 10.816V7.456H168.795V6H170.083V4.488L171.595 4.04V6H173.331V7.456ZM179.959 6H181.471V13H179.959V11.992C179.39 12.7853 178.573 13.182 177.509 13.182C176.548 13.182 175.727 12.8273 175.045 12.118C174.364 11.3993 174.023 10.5267 174.023 9.5C174.023 8.464 174.364 7.59133 175.045 6.882C175.727 6.17267 176.548 5.818 177.509 5.818C178.573 5.818 179.39 6.21 179.959 6.994V6ZM176.165 11.11C176.585 11.53 177.113 11.74 177.747 11.74C178.382 11.74 178.909 11.53 179.329 11.11C179.749 10.6807 179.959 10.144 179.959 9.5C179.959 8.856 179.749 8.324 179.329 7.904C178.909 7.47467 178.382 7.26 177.747 7.26C177.113 7.26 176.585 7.47467 176.165 7.904C175.745 8.324 175.535 8.856 175.535 9.5C175.535 10.144 175.745 10.6807 176.165 11.11Z" fill="white"/>
<defs>
<filter id="filter0_d_401_159" x="142" y="0" width="53" height="25" filterUnits="userSpaceOnUse" color-interpolation-filters="sRGB">
<feFlood flood-opacity="0" result="BackgroundImageFix"/>
<feColorMatrix in="SourceAlpha" type="matrix" values="0 0 0 0 0 0 0 0 0 0 0 0 0 0 0 0 0 0 127 0" result="hardAlpha"/>
<feOffset dy="4"/>
<feGaussianBlur stdDeviation="2"/>
<feComposite in2="hardAlpha" operator="out"/>
<feColorMatrix type="matrix" values="0 0 0 0 0 0 0 0 0 0 0 0 0 0 0 0 0 0 0.25 0"/>
<feBlend mode="normal" in2="BackgroundImageFix" result="effect1_dropShadow_401_159"/>
<feBlend mode="normal" in="SourceGraphic" in2="effect1_dropShadow_401_159" result="shape"/>
</filter>
<linearGradient id="paint0_linear_401_159" x1="4.52381" y1="14.5" x2="77.6228" y2="39.1968" gradientUnits="userSpaceOnUse">
<stop stop-color="#FF7F41" stop-opacity="0.74"/>
<stop offset="1" stop-color="#FF7F41" stop-opacity="0"/>
</linearGradient>
</defs>
</svg>
