<svg width="120" height="20" viewBox="0 0 120 20" fill="none" xmlns="http://www.w3.org/2000/svg">
<path d="M14.1251 0.385254V4.01025H8.94084V19.6153H5.15684V4.01025H0V0.385254H14.1251Z" fill="#292F51"/>
<path d="M21.3934 15.9903H29.4856V19.6178H17.6094V0.385254H29.3483V4.01025H21.3934V8.10275H28.6619V11.6753H21.3934V15.9903Z" fill="#292F51"/>
<path d="M37.3041 15.9903H44.6275V19.6178H33.5176V0.385254H37.3016V15.9903H37.3041Z" fill="#292F51"/>
<path d="M51.9227 15.9903H60.0149V19.6178H48.1387V0.385254H59.8776V4.01025H51.9227V8.10275H59.1912V11.6753H51.9227V15.9903Z" fill="#292F51"/>
<path d="M75.6485 9.64275C77.3308 10.6128 78.172 12.0778 78.172 14.0378C78.172 15.6678 77.5954 17.0053 76.4447 18.0478C75.2941 19.0928 73.8763 19.6128 72.194 19.6128H64.0469V0.385254H71.6174C73.2623 0.385254 74.6476 0.892754 75.7733 1.91025C76.899 2.92775 77.4606 4.22275 77.4606 5.79775C77.4606 7.39025 76.8566 8.67275 75.6485 9.64275ZM71.6174 3.92775H67.8334V8.15775H71.6174C72.2015 8.15775 72.6907 7.95525 73.0851 7.55275C73.4794 7.15025 73.6741 6.64525 73.6741 6.04275C73.6741 5.43775 73.4819 4.93525 73.0975 4.53275C72.7132 4.13025 72.2214 3.92775 71.6174 3.92775ZM72.194 16.0728C72.833 16.0728 73.3646 15.8578 73.784 15.4278C74.2033 14.9978 74.4155 14.4528 74.4155 13.7928C74.4155 13.1528 74.2058 12.6153 73.784 12.1853C73.3621 11.7553 72.833 11.5403 72.194 11.5403H67.8334V16.0728H72.194Z" fill="#292F51"/>
<path d="M98.1678 17.1025C96.2284 19.035 93.8696 20 91.0915 20C88.3109 20 85.9571 19.035 84.0277 17.1025C82.0982 15.17 81.1348 12.8025 81.1348 10C81.1348 7.1975 82.0982 4.83 84.0277 2.8975C85.9571 0.965 88.3109 0 91.0915 0C93.8696 0 96.2284 0.9675 98.1678 2.8975C100.105 4.83 101.076 7.1975 101.076 10C101.076 12.8025 100.107 15.17 98.1678 17.1025ZM86.676 14.52C87.8641 15.7025 89.3368 16.2925 91.0915 16.2925C92.8462 16.2925 94.3189 15.7025 95.507 14.52C96.6951 13.3375 97.2892 11.8325 97.2892 10C97.2892 8.17 96.6951 6.6575 95.507 5.4675C94.3189 4.2775 92.8462 3.6825 91.0915 3.6825C89.3368 3.6825 87.8641 4.2775 86.676 5.4675C85.4879 6.6575 84.8938 8.17 84.8938 10C84.8913 11.8325 85.4854 13.3375 86.676 14.52Z" fill="#292F51"/>
<path d="M116.217 0.385254H120.001V19.6153H117.12L108.893 7.85775V19.6153H105.109V0.385254H107.99L116.219 12.1153V0.385254H116.217Z" fill="#292F51"/>
</svg>
