<svg width="30" height="30" viewBox="0 0 30 30" fill="none" xmlns="http://www.w3.org/2000/svg">
<rect width="30" height="30" rx="6.525" fill="#496FFF"/>
<path d="M17.1404 21.8807C15.7602 22.0382 14.3661 22.037 12.9848 21.8923C11.8228 21.771 10.6748 21.5482 9.56649 21.0897C7.74301 20.336 6.75485 18.5709 7.05235 16.612C7.15268 15.9482 7.49101 15.4839 8.163 15.3847C8.78716 15.2926 9.43232 15.2214 10.0565 15.2739C10.949 15.3497 11.3818 16.0287 11.6105 16.8069C11.7656 17.3354 11.8356 17.8965 11.88 18.4472C11.9138 18.866 12.1005 18.985 12.4866 18.9827C14.1549 18.9722 15.8232 18.9699 17.4916 18.9827C17.9291 18.9862 18.0667 18.7937 18.1134 18.3807C18.1857 17.7542 18.2557 17.1102 18.4646 16.5222C18.7714 15.6612 19.4154 15.1572 20.386 15.2319C20.9134 15.2727 21.4465 15.3089 21.9598 15.4267C22.5093 15.5527 22.8885 16.0544 22.85 16.6167C22.7905 17.4637 22.7123 18.3235 22.4942 19.139C22.241 20.0852 21.4524 20.6102 20.5925 20.994C19.4807 21.4933 18.3234 21.7453 17.1404 21.8807Z" fill="white"/>
<path d="M9.1542 12.2303C10.3224 12.2303 11.2693 11.2833 11.2693 10.1151C11.2693 8.94698 10.3224 8 9.1542 8C7.98604 8 7.03906 8.94698 7.03906 10.1151C7.03906 11.2833 7.98604 12.2303 9.1542 12.2303Z" fill="white"/>
<path d="M20.8007 12.2303C21.9688 12.2303 22.9158 11.2833 22.9158 10.1151C22.9158 8.94698 21.9688 8 20.8007 8C19.6325 8 18.6855 8.94698 18.6855 10.1151C18.6855 11.2833 19.6325 12.2303 20.8007 12.2303Z" fill="white"/>
</svg>
