<svg width="132" height="33" viewBox="0 0 132 33" fill="none" xmlns="http://www.w3.org/2000/svg">
<path opacity="0.8" d="M16.0156 33C7.17931 33 0.0156196 25.8365 0.0156196 16.9996C0.0156196 8.16271 7.17851 0.999996 16.0156 0.999996" fill="white"/>
<path d="M16.2071 33C13.9783 33 11.3524 26.1445 11.3524 17.3076C11.3524 8.47073 13.9783 0.999997 16.2071 0.999997C18.4359 0.999997 19.7734 8.16351 19.7734 16.9996C19.7734 25.8357 18.4359 33 16.2071 33Z" fill="white"/>
<path d="M28.66 18.5718C28.7047 19.8752 28.8279 21.1751 29.0288 22.465C29.0949 22.8771 29.1693 23.2893 29.2768 23.6943C29.338 23.9312 29.405 24.1965 29.5447 24.4049C29.6031 24.4973 29.6896 24.5706 29.7927 24.6149C29.8433 24.637 29.8983 24.6484 29.9539 24.6484C30.0096 24.6484 30.0646 24.637 30.1152 24.6149C30.3367 24.5296 30.4409 24.2912 30.5128 24.0733C30.6091 23.7573 30.6814 23.4351 30.7295 23.1093C30.9168 21.9369 31.0366 20.7555 31.0883 19.5706C31.1704 18.052 31.1781 16.5319 31.1114 15.0102C31.066 13.7736 30.9542 12.5401 30.7766 11.3144C30.7257 10.9442 30.6531 10.577 30.5591 10.2146C30.4955 9.98405 30.4153 9.68481 30.1854 9.55296C29.887 9.38084 29.6067 9.59243 29.481 9.85061C29.355 10.139 29.2616 10.4394 29.2024 10.7467C28.961 11.8276 28.8386 12.9377 28.7502 14.0391C28.6299 15.5471 28.5998 17.0605 28.66 18.5718ZM29.4438 15.1839C29.4752 14.5344 29.5243 13.8859 29.591 13.2385C29.6208 12.9551 29.6538 12.6724 29.6919 12.3905C29.6919 12.3542 29.7009 12.3187 29.7059 12.2824C29.7059 12.2729 29.7059 12.2658 29.7059 12.2603C29.7059 12.2547 29.7059 12.2476 29.7059 12.239L29.7307 12.0676C29.7489 11.9476 29.7679 11.8284 29.7878 11.71C29.8308 11.4549 29.8779 11.1999 29.9349 10.9473L29.9523 11.0397C29.9903 11.2457 30.0226 11.4534 30.0532 11.6618V11.6752V11.6902C30.0581 11.7226 30.0622 11.755 30.0664 11.7866C30.0738 11.8426 30.0813 11.8979 30.0879 11.9531C30.1044 12.081 30.1193 12.2097 30.1342 12.3376C30.2003 12.9298 30.2499 13.5219 30.2871 14.1173C30.3847 15.5547 30.4114 16.9927 30.3673 18.4313C30.3318 19.674 30.2541 20.9183 30.1003 22.1524C30.0912 22.2195 30.0829 22.2858 30.0738 22.3529C30.0738 22.3711 30.0614 22.4437 30.0589 22.465C30.0441 22.5684 30.0283 22.6727 30.0118 22.7761C29.9898 22.915 29.9652 23.0535 29.9382 23.1914C29.9085 23.0572 29.8809 22.9224 29.8556 22.7871C29.8126 22.5605 29.7729 22.3339 29.7398 22.1058L29.71 21.9005C29.71 21.9005 29.71 21.891 29.71 21.8847C29.7051 21.8515 29.7009 21.8184 29.696 21.7852C29.6778 21.6484 29.6604 21.5118 29.6439 21.3755C29.5706 20.757 29.5155 20.1369 29.4785 19.5153C29.3851 18.0732 29.3735 16.6273 29.4438 15.1839Z" fill="white"/>
<path d="M24.2604 30.4688C22.2599 30.4688 20.6382 24.4366 20.6382 16.9947C20.6382 9.55273 22.2599 3.52138 24.2604 3.52138C26.2608 3.52138 27.375 9.55353 27.375 16.9947C27.375 24.4358 26.257 30.4688 24.2604 30.4688Z" fill="white"/>
<path d="M126.002 23.9522C126.002 24.1522 125.962 24.3392 125.883 24.5131C125.813 24.6783 125.716 24.8262 125.593 24.9566C125.47 25.0784 125.32 25.174 125.144 25.2436C124.977 25.3132 124.797 25.348 124.603 25.348C124.41 25.348 124.221 25.3132 124.036 25.2436C123.86 25.174 123.706 25.0784 123.574 24.9566C123.442 24.8262 123.337 24.6783 123.258 24.5131C123.178 24.3392 123.139 24.1522 123.139 23.9522V19.0998C123.139 19.0302 123.143 18.978 123.152 18.9432C123.135 18.5171 123.047 18.1171 122.888 17.7432C122.73 17.3692 122.514 17.0431 122.242 16.7648C121.969 16.4866 121.648 16.2692 121.279 16.1126C120.918 15.9474 120.518 15.8648 120.078 15.8648C119.629 15.8648 119.216 15.9474 118.838 16.1126C118.459 16.2692 118.134 16.4909 117.861 16.7779C117.597 17.0649 117.386 17.404 117.228 17.7953C117.078 18.178 117.004 18.591 117.004 19.0345V23.9522C117.004 24.1522 116.969 24.3392 116.898 24.5131C116.828 24.6783 116.727 24.8262 116.595 24.9566C116.472 25.0784 116.326 25.174 116.159 25.2436C115.992 25.3132 115.807 25.348 115.605 25.348C115.412 25.348 115.227 25.3132 115.051 25.2436C114.875 25.174 114.717 25.0784 114.576 24.9566C114.444 24.8262 114.339 24.6783 114.259 24.5131C114.18 24.3392 114.141 24.1522 114.141 23.9522V19.0345C114.141 18.1997 114.29 17.4214 114.589 16.6996C114.897 15.9691 115.315 15.3343 115.843 14.7952C116.379 14.2473 117.008 13.8168 117.729 13.5038C118.459 13.1907 119.242 13.0342 120.078 13.0342C120.922 13.0342 121.705 13.1907 122.426 13.5038C123.148 13.8168 123.772 14.2473 124.3 14.7952C124.828 15.3343 125.241 15.9691 125.54 16.6996C125.848 17.4214 126.002 18.1997 126.002 19.0345V23.9522Z" fill="white"/>
<path d="M102.988 19.2563C102.988 19.7172 103.076 20.1563 103.252 20.5738C103.437 20.9825 103.683 21.3434 103.991 21.6564C104.307 21.9608 104.673 22.2043 105.086 22.3869C105.499 22.5608 105.944 22.6478 106.419 22.6478C106.893 22.6478 107.338 22.5608 107.751 22.3869C108.173 22.2043 108.538 21.9608 108.846 21.6564C109.154 21.3434 109.396 20.9825 109.572 20.5738C109.748 20.1563 109.836 19.7172 109.836 19.2563C109.836 18.7867 109.748 18.3475 109.572 17.9388C109.396 17.5214 109.154 17.1605 108.846 16.8561C108.538 16.5518 108.173 16.3126 107.751 16.1387C107.338 15.9561 106.893 15.8648 106.419 15.8648C105.952 15.8648 105.508 15.9561 105.086 16.1387C104.673 16.3126 104.307 16.5518 103.991 16.8561C103.683 17.1605 103.437 17.5214 103.252 17.9388C103.076 18.3475 102.988 18.7867 102.988 19.2563ZM100.125 19.2563C100.125 18.3954 100.292 17.591 100.626 16.8431C100.961 16.0865 101.414 15.4256 101.985 14.8604C102.557 14.2951 103.221 13.8516 103.978 13.5299C104.743 13.1994 105.557 13.0342 106.419 13.0342C107.289 13.0342 108.107 13.1994 108.873 13.5299C109.638 13.8516 110.302 14.2951 110.865 14.8604C111.437 15.4256 111.885 16.0865 112.211 16.8431C112.536 17.591 112.699 18.3954 112.699 19.2563C112.699 20.1085 112.536 20.9129 112.211 21.6695C111.885 22.426 111.437 23.0869 110.865 23.6522C110.302 24.2175 109.638 24.6653 108.873 24.9958C108.107 25.3175 107.289 25.4784 106.419 25.4784C105.557 25.4784 104.743 25.3175 103.978 24.9958C103.221 24.6653 102.557 24.2175 101.985 23.6522C101.414 23.0869 100.961 22.426 100.626 21.6695C100.292 20.9129 100.125 20.1085 100.125 19.2563Z" fill="white"/>
<path d="M86.6641 9.98572C86.6641 9.77701 86.6992 9.5857 86.7696 9.41177C86.8488 9.22915 86.9499 9.07262 87.0731 8.94218C87.205 8.80304 87.3589 8.69869 87.5349 8.62912C87.7108 8.55085 87.8999 8.51172 88.1022 8.51172C88.3133 8.51172 88.5024 8.55085 88.6695 8.62912C88.8455 8.69869 88.995 8.80304 89.1181 8.94218C89.2501 9.07262 89.3512 9.22915 89.4216 9.41177C89.492 9.5857 89.5272 9.77701 89.5272 9.98572V14.0555C90.0285 13.7338 90.5651 13.4859 91.1368 13.312C91.7173 13.1294 92.3243 13.0381 92.9576 13.0381C93.8284 13.0381 94.642 13.2033 95.3985 13.5338C96.1637 13.8555 96.8278 14.299 97.3908 14.8643C97.9625 15.4208 98.4111 16.0774 98.7365 16.834C99.0708 17.5905 99.2379 18.3993 99.2379 19.2602C99.2379 20.1124 99.0708 20.9168 98.7365 21.6734C98.4111 22.4299 97.9625 23.0908 97.3908 23.6561C96.8278 24.2213 96.1637 24.6692 95.3985 24.9997C94.642 25.3214 93.8284 25.4823 92.9576 25.4823C92.0956 25.4823 91.2819 25.3214 90.5167 24.9997C89.7514 24.6692 89.083 24.2213 88.5112 23.6561C87.9395 23.0908 87.4865 22.4299 87.1522 21.6734C86.8268 20.9168 86.6641 20.1124 86.6641 19.2602V9.98572ZM89.5272 19.2602C89.5272 19.7211 89.6151 20.1602 89.791 20.5777C89.9757 20.9864 90.222 21.3473 90.5299 21.6603C90.8465 21.9647 91.2116 22.2082 91.625 22.3908C92.0384 22.5647 92.4826 22.6517 92.9576 22.6517C93.4326 22.6517 93.8768 22.5647 94.2902 22.3908C94.7036 22.2082 95.0642 21.9647 95.3721 21.6603C95.6887 21.3473 95.935 20.9864 96.1109 20.5777C96.2869 20.1602 96.3748 19.7211 96.3748 19.2602C96.3748 18.7906 96.2869 18.3514 96.1109 17.9427C95.935 17.5253 95.6887 17.1644 95.3721 16.86C95.0642 16.5557 94.7036 16.3165 94.2902 16.1426C93.8768 15.96 93.4326 15.8687 92.9576 15.8687C92.4826 15.8687 92.0384 15.96 91.625 16.1426C91.2116 16.3165 90.8465 16.5557 90.5299 16.86C90.222 17.1644 89.9757 17.5253 89.791 17.9427C89.6151 18.3514 89.5272 18.7906 89.5272 19.2602Z" fill="white"/>
<path d="M75.5015 20.5216C75.6159 20.8433 75.7742 21.139 75.9765 21.4086C76.1876 21.6695 76.4295 21.8956 76.7022 22.0869C76.9749 22.2695 77.2739 22.413 77.5994 22.5174C77.9248 22.613 78.2679 22.6608 78.6285 22.6608C79.5345 22.6608 80.247 22.426 80.7659 21.9564C80.9418 21.8347 81.1134 21.7477 81.2805 21.6956C81.4476 21.6347 81.6059 21.6043 81.7555 21.6043C82.0018 21.6043 82.2217 21.6695 82.4152 21.7999C82.6087 21.9217 82.767 22.0825 82.8901 22.2826C82.9781 22.4217 83.0397 22.5739 83.0749 22.7391C83.1188 22.8956 83.1276 23.0565 83.1013 23.2217C83.0837 23.387 83.0309 23.5522 82.9429 23.7174C82.8638 23.874 82.7406 24.0174 82.5735 24.1479C82.38 24.3218 82.1601 24.4914 81.9138 24.6566C81.6675 24.8131 81.3816 24.9523 81.0562 25.074C80.7395 25.1958 80.3789 25.2914 79.9743 25.361C79.5785 25.4393 79.1299 25.4784 78.6285 25.4784C77.7577 25.4784 76.9397 25.3175 76.1744 24.9958C75.4092 24.6653 74.7407 24.2175 74.1689 23.6522C73.5972 23.0869 73.1442 22.4304 72.81 21.6825C72.4757 20.926 72.3086 20.1172 72.3086 19.2563C72.3086 18.3954 72.4757 17.5866 72.81 16.8301C73.1442 16.0735 73.5972 15.4169 74.1689 14.8604C74.7407 14.2951 75.4092 13.8516 76.1744 13.5299C76.9397 13.1994 77.7577 13.0342 78.6285 13.0342C79.4905 13.0342 80.2997 13.1951 81.0562 13.5168C81.8214 13.8386 82.4899 14.2777 83.0617 14.8343C83.6422 15.3821 84.0996 16.03 84.4338 16.7779C84.7769 17.5258 84.9528 18.3258 84.9616 19.178C84.9616 19.578 84.8297 19.9042 84.5658 20.1563C84.3107 20.3998 83.9721 20.5216 83.5498 20.5216H75.5015ZM82.0193 18.1736C81.9226 17.8171 81.7687 17.4953 81.5576 17.2083C81.3553 16.9214 81.109 16.6779 80.8187 16.4779C80.5284 16.2779 80.203 16.1257 79.8423 16.0213C79.4817 15.917 79.0991 15.8648 78.6945 15.8648C78.2899 15.8648 77.9072 15.9213 77.5466 16.0344C77.1948 16.1387 76.8737 16.2952 76.5834 16.504C76.302 16.704 76.0601 16.9475 75.8578 17.2344C75.6555 17.5127 75.5059 17.8258 75.4092 18.1736H82.0193Z" fill="white"/>
<path d="M70.1172 22.4952C70.3195 22.4952 70.5086 22.5343 70.6845 22.6126C70.8605 22.6908 71.01 22.7995 71.1331 22.9387C71.2563 23.0691 71.353 23.2213 71.4234 23.3952C71.4938 23.5691 71.529 23.7518 71.529 23.9431C71.529 24.3431 71.397 24.6735 71.1331 24.9344C70.8693 25.1953 70.5306 25.3258 70.1172 25.3258C69.5191 25.3258 68.9561 25.2258 68.4284 25.0257C67.9094 24.8257 67.452 24.5475 67.0562 24.1909C66.6604 23.8344 66.3481 23.4039 66.1194 22.8995C65.8907 22.3952 65.7676 21.8386 65.75 21.2299V9.93354C65.75 9.73353 65.7852 9.54656 65.8556 9.37264C65.9347 9.19872 66.0359 9.05088 66.159 8.92913C66.2822 8.79869 66.4273 8.69869 66.5944 8.62912C66.7615 8.55085 66.9419 8.51172 67.1354 8.51172C67.3377 8.51172 67.5268 8.55085 67.7027 8.62912C67.8786 8.69869 68.0326 8.79869 68.1645 8.92913C68.3052 9.05088 68.4152 9.19872 68.4943 9.37264C68.5735 9.54656 68.6131 9.73353 68.6131 9.93354V21.1386C68.6131 21.5908 68.7538 21.9299 69.0353 22.156C69.3168 22.3821 69.6774 22.4952 70.1172 22.4952Z" fill="white"/>
<path d="M54.6656 20.5216C54.7799 20.8433 54.9383 21.139 55.1406 21.4086C55.3517 21.6695 55.5936 21.8956 55.8662 22.0869C56.1389 22.2695 56.438 22.413 56.7634 22.5174C57.0889 22.613 57.4319 22.6608 57.7926 22.6608C58.6985 22.6608 59.411 22.426 59.93 21.9564C60.1059 21.8347 60.2774 21.7477 60.4445 21.6956C60.6117 21.6347 60.77 21.6043 60.9195 21.6043C61.1658 21.6043 61.3857 21.6695 61.5792 21.7999C61.7727 21.9217 61.9311 22.0825 62.0542 22.2826C62.1422 22.4217 62.2037 22.5739 62.2389 22.7391C62.2829 22.8956 62.2917 23.0565 62.2653 23.2217C62.2477 23.387 62.1949 23.5522 62.107 23.7174C62.0278 23.874 61.9047 24.0174 61.7376 24.1479C61.544 24.3218 61.3241 24.4914 61.0779 24.6566C60.8316 24.8131 60.5457 24.9523 60.2203 25.074C59.9036 25.1958 59.543 25.2914 59.1383 25.361C58.7425 25.4393 58.2939 25.4784 57.7926 25.4784C56.9218 25.4784 56.1037 25.3175 55.3385 24.9958C54.5732 24.6653 53.9047 24.2175 53.333 23.6522C52.7613 23.0869 52.3083 22.4304 51.974 21.6825C51.6398 20.926 51.4727 20.1172 51.4727 19.2563C51.4727 18.3954 51.6398 17.5866 51.974 16.8301C52.3083 16.0735 52.7613 15.4169 53.333 14.8604C53.9047 14.2951 54.5732 13.8516 55.3385 13.5299C56.1037 13.1994 56.9218 13.0342 57.7926 13.0342C58.6546 13.0342 59.4638 13.1951 60.2203 13.5168C60.9855 13.8386 61.654 14.2777 62.2257 14.8343C62.8063 15.3821 63.2637 16.03 63.5979 16.7779C63.9409 17.5258 64.1169 18.3258 64.1257 19.178C64.1257 19.578 63.9937 19.9042 63.7298 20.1563C63.4748 20.3998 63.1361 20.5216 62.7139 20.5216H54.6656ZM61.1834 18.1736C61.0867 17.8171 60.9327 17.4953 60.7216 17.2083C60.5193 16.9214 60.273 16.6779 59.9828 16.4779C59.6925 16.2779 59.367 16.1257 59.0064 16.0213C58.6458 15.917 58.2631 15.8648 57.8585 15.8648C57.4539 15.8648 57.0713 15.9213 56.7107 16.0344C56.3588 16.1387 56.0378 16.2952 55.7475 16.504C55.466 16.704 55.2241 16.9475 55.0218 17.2344C54.8195 17.5127 54.67 17.8258 54.5732 18.1736H61.1834Z" fill="white"/>
<path d="M42.8631 13.2007H47.4546C47.6569 13.2007 47.846 13.2398 48.0219 13.3181C48.1978 13.3876 48.3518 13.4876 48.4837 13.6181C48.6157 13.7485 48.7168 13.9007 48.7872 14.0746C48.8663 14.2486 48.9059 14.4355 48.9059 14.6355C48.9059 14.8268 48.8663 15.0095 48.7872 15.1834C48.7168 15.3486 48.6157 15.4965 48.4837 15.6269C48.3518 15.7486 48.1978 15.8486 48.0219 15.9269C47.846 15.9965 47.6569 16.0313 47.4546 16.0313H42.8631V19.3315C42.8631 19.7924 42.951 20.2272 43.127 20.6359C43.3117 21.0359 43.558 21.3881 43.8658 21.6925C44.1737 21.9881 44.5343 22.2229 44.9477 22.3969C45.3699 22.5708 45.8185 22.6577 46.2935 22.6577C46.7157 22.6577 47.1071 22.6012 47.4678 22.4882C47.8284 22.3664 48.1627 22.1708 48.4705 21.9012C48.6201 21.762 48.7872 21.649 48.9719 21.562C49.1566 21.4664 49.3501 21.4185 49.5524 21.4185C49.8779 21.4185 50.1725 21.5359 50.4364 21.7707C50.5947 21.9099 50.7047 22.0751 50.7663 22.2664C50.8366 22.4577 50.863 22.6577 50.8454 22.8665C50.8366 23.0665 50.7883 23.2621 50.7003 23.4534C50.6123 23.6448 50.4892 23.8143 50.3309 23.9622C49.8031 24.4665 49.1962 24.8492 48.5101 25.1101C47.824 25.3623 47.0852 25.4883 46.2935 25.4883C45.4227 25.4883 44.6047 25.3275 43.8394 25.0057C43.083 24.684 42.4189 24.2448 41.8472 23.6882C41.2754 23.1317 40.8224 22.4795 40.4882 21.7316C40.1627 20.975 40 20.1663 40 19.3054V10.931C40 10.7309 40.0396 10.544 40.1187 10.3701C40.1979 10.1961 40.3035 10.044 40.4354 9.91351C40.5673 9.78307 40.7213 9.68306 40.8972 9.61349C41.0731 9.53523 41.2578 9.49609 41.4513 9.49609C41.6448 9.49609 41.8252 9.53523 41.9923 9.61349C42.1682 9.68306 42.3177 9.78307 42.4409 9.91351C42.5728 10.044 42.674 10.1961 42.7443 10.3701C42.8235 10.544 42.8631 10.7309 42.8631 10.931V13.2007Z" fill="white"/>
</svg>
