<svg width="241" height="48" viewBox="0 0 241 48" fill="none" xmlns="http://www.w3.org/2000/svg">
<path d="M70.0145 13V18.28H62.4545V41H56.9345V18.28H49.4145V13H70.0145ZM73.5833 33.12C74.2766 35.6267 76.1566 36.88 79.2233 36.88C81.1966 36.88 82.6899 36.2133 83.7033 34.88L87.8633 37.28C85.8899 40.1333 82.9833 41.56 79.1433 41.56C75.8366 41.56 73.1833 40.56 71.1833 38.56C69.1833 36.56 68.1833 34.04 68.1833 31C68.1833 27.9867 69.1699 25.48 71.1433 23.48C73.1166 21.4533 75.6499 20.44 78.7433 20.44C81.6766 20.44 84.0899 21.4533 85.9833 23.48C87.9033 25.5067 88.8633 28.0133 88.8633 31C88.8633 31.6667 88.7966 32.3733 88.6633 33.12H73.5833ZM73.5033 29.12H83.7033C83.4099 27.76 82.7966 26.7467 81.8633 26.08C80.9566 25.4133 79.9166 25.08 78.7433 25.08C77.3566 25.08 76.2099 25.44 75.3033 26.16C74.3966 26.8533 73.7966 27.84 73.5033 29.12ZM92.4655 41V11.8H97.6255V41H92.4655ZM106.708 33.12C107.402 35.6267 109.282 36.88 112.348 36.88C114.322 36.88 115.815 36.2133 116.828 34.88L120.988 37.28C119.015 40.1333 116.108 41.56 112.268 41.56C108.962 41.56 106.308 40.56 104.308 38.56C102.308 36.56 101.308 34.04 101.308 31C101.308 27.9867 102.295 25.48 104.268 23.48C106.242 21.4533 108.775 20.44 111.868 20.44C114.802 20.44 117.215 21.4533 119.108 23.48C121.028 25.5067 121.988 28.0133 121.988 31C121.988 31.6667 121.922 32.3733 121.788 33.12H106.708ZM106.628 29.12H116.828C116.535 27.76 115.922 26.7467 114.988 26.08C114.082 25.4133 113.042 25.08 111.868 25.08C110.482 25.08 109.335 25.44 108.428 26.16C107.522 26.8533 106.922 27.84 106.628 29.12ZM137.23 20.44C139.924 20.44 142.217 21.4667 144.11 23.52C146.03 25.5467 146.99 28.04 146.99 31C146.99 33.96 146.03 36.4667 144.11 38.52C142.217 40.5467 139.924 41.56 137.23 41.56C134.43 41.56 132.27 40.5867 130.75 38.64V41H125.59V13H130.75V23.36C132.27 21.4133 134.43 20.44 137.23 20.44ZM132.31 35.08C133.35 36.12 134.67 36.64 136.27 36.64C137.87 36.64 139.19 36.12 140.23 35.08C141.297 34.0133 141.83 32.6533 141.83 31C141.83 29.3467 141.297 28 140.23 26.96C139.19 25.8933 137.87 25.36 136.27 25.36C134.67 25.36 133.35 25.8933 132.31 26.96C131.27 28 130.75 29.3467 130.75 31C130.75 32.6533 131.27 34.0133 132.31 35.08ZM167.67 38.52C165.616 40.5467 163.11 41.56 160.15 41.56C157.19 41.56 154.683 40.5467 152.63 38.52C150.603 36.4667 149.59 33.96 149.59 31C149.59 28.04 150.603 25.5467 152.63 23.52C154.683 21.4667 157.19 20.44 160.15 20.44C163.11 20.44 165.616 21.4667 167.67 23.52C169.723 25.5467 170.75 28.04 170.75 31C170.75 33.96 169.723 36.4667 167.67 38.52ZM156.27 34.96C157.31 36 158.603 36.52 160.15 36.52C161.696 36.52 162.99 36 164.03 34.96C165.07 33.92 165.59 32.6 165.59 31C165.59 29.4 165.07 28.08 164.03 27.04C162.99 26 161.696 25.48 160.15 25.48C158.603 25.48 157.31 26 156.27 27.04C155.256 28.08 154.75 29.4 154.75 31C154.75 32.6 155.256 33.92 156.27 34.96ZM185.5 20.44C187.686 20.44 189.486 21.1733 190.9 22.64C192.34 24.1067 193.06 26.1333 193.06 28.72V41H187.9V29.36C187.9 28.0267 187.54 27.0133 186.82 26.32C186.1 25.6 185.14 25.24 183.94 25.24C182.606 25.24 181.54 25.6533 180.74 26.48C179.94 27.3067 179.54 28.5467 179.54 30.2V41H174.38V21H179.54V23.24C180.793 21.3733 182.78 20.44 185.5 20.44Z" fill="#292F51"/>
<path d="M70.0145 13V18.28H62.4545V41H56.9345V18.28H49.4145V13H70.0145ZM73.5833 33.12C74.2766 35.6267 76.1566 36.88 79.2233 36.88C81.1966 36.88 82.6899 36.2133 83.7033 34.88L87.8633 37.28C85.8899 40.1333 82.9833 41.56 79.1433 41.56C75.8366 41.56 73.1833 40.56 71.1833 38.56C69.1833 36.56 68.1833 34.04 68.1833 31C68.1833 27.9867 69.1699 25.48 71.1433 23.48C73.1166 21.4533 75.6499 20.44 78.7433 20.44C81.6766 20.44 84.0899 21.4533 85.9833 23.48C87.9033 25.5067 88.8633 28.0133 88.8633 31C88.8633 31.6667 88.7966 32.3733 88.6633 33.12H73.5833ZM73.5033 29.12H83.7033C83.4099 27.76 82.7966 26.7467 81.8633 26.08C80.9566 25.4133 79.9166 25.08 78.7433 25.08C77.3566 25.08 76.2099 25.44 75.3033 26.16C74.3966 26.8533 73.7966 27.84 73.5033 29.12ZM92.4655 41V11.8H97.6255V41H92.4655ZM106.708 33.12C107.402 35.6267 109.282 36.88 112.348 36.88C114.322 36.88 115.815 36.2133 116.828 34.88L120.988 37.28C119.015 40.1333 116.108 41.56 112.268 41.56C108.962 41.56 106.308 40.56 104.308 38.56C102.308 36.56 101.308 34.04 101.308 31C101.308 27.9867 102.295 25.48 104.268 23.48C106.242 21.4533 108.775 20.44 111.868 20.44C114.802 20.44 117.215 21.4533 119.108 23.48C121.028 25.5067 121.988 28.0133 121.988 31C121.988 31.6667 121.922 32.3733 121.788 33.12H106.708ZM106.628 29.12H116.828C116.535 27.76 115.922 26.7467 114.988 26.08C114.082 25.4133 113.042 25.08 111.868 25.08C110.482 25.08 109.335 25.44 108.428 26.16C107.522 26.8533 106.922 27.84 106.628 29.12ZM137.23 20.44C139.924 20.44 142.217 21.4667 144.11 23.52C146.03 25.5467 146.99 28.04 146.99 31C146.99 33.96 146.03 36.4667 144.11 38.52C142.217 40.5467 139.924 41.56 137.23 41.56C134.43 41.56 132.27 40.5867 130.75 38.64V41H125.59V13H130.75V23.36C132.27 21.4133 134.43 20.44 137.23 20.44ZM132.31 35.08C133.35 36.12 134.67 36.64 136.27 36.64C137.87 36.64 139.19 36.12 140.23 35.08C141.297 34.0133 141.83 32.6533 141.83 31C141.83 29.3467 141.297 28 140.23 26.96C139.19 25.8933 137.87 25.36 136.27 25.36C134.67 25.36 133.35 25.8933 132.31 26.96C131.27 28 130.75 29.3467 130.75 31C130.75 32.6533 131.27 34.0133 132.31 35.08ZM167.67 38.52C165.616 40.5467 163.11 41.56 160.15 41.56C157.19 41.56 154.683 40.5467 152.63 38.52C150.603 36.4667 149.59 33.96 149.59 31C149.59 28.04 150.603 25.5467 152.63 23.52C154.683 21.4667 157.19 20.44 160.15 20.44C163.11 20.44 165.616 21.4667 167.67 23.52C169.723 25.5467 170.75 28.04 170.75 31C170.75 33.96 169.723 36.4667 167.67 38.52ZM156.27 34.96C157.31 36 158.603 36.52 160.15 36.52C161.696 36.52 162.99 36 164.03 34.96C165.07 33.92 165.59 32.6 165.59 31C165.59 29.4 165.07 28.08 164.03 27.04C162.99 26 161.696 25.48 160.15 25.48C158.603 25.48 157.31 26 156.27 27.04C155.256 28.08 154.75 29.4 154.75 31C154.75 32.6 155.256 33.92 156.27 34.96ZM185.5 20.44C187.686 20.44 189.486 21.1733 190.9 22.64C192.34 24.1067 193.06 26.1333 193.06 28.72V41H187.9V29.36C187.9 28.0267 187.54 27.0133 186.82 26.32C186.1 25.6 185.14 25.24 183.94 25.24C182.606 25.24 181.54 25.6533 180.74 26.48C179.94 27.3067 179.54 28.5467 179.54 30.2V41H174.38V21H179.54V23.24C180.793 21.3733 182.78 20.44 185.5 20.44Z" fill="url(#paint0_linear_431_504)" fill-opacity="0.59"/>
<path opacity="0.8" d="M20.0208 48C8.97542 48 0.0208054 39.0456 0.0208054 27.9995C0.0208054 16.9534 8.97442 8 20.0208 8" fill="#246BFD"/>
<path d="M20.2561 48C17.4701 48 14.1877 39.4306 14.1877 28.3845C14.1877 17.3384 17.4701 8 20.2561 8C23.042 8 24.714 16.9544 24.714 27.9995C24.714 39.0446 23.042 48 20.2561 48Z" fill="#246BFD"/>
<g filter="url(#filter0_d_431_504)">
<path d="M35.8271 29.9679C35.883 31.5972 36.0369 33.222 36.288 34.8344C36.3707 35.3496 36.4637 35.8648 36.5981 36.3711C36.6745 36.6671 36.7583 36.9987 36.9329 37.2593C37.006 37.3748 37.1141 37.4664 37.2429 37.5218C37.3062 37.5494 37.3749 37.5637 37.4445 37.5637C37.514 37.5637 37.5827 37.5494 37.646 37.5218C37.923 37.4152 38.0532 37.1172 38.1431 36.8448C38.2634 36.4498 38.3539 36.0471 38.4139 35.6398C38.6481 34.1743 38.7978 32.6976 38.8624 31.2164C38.965 29.3182 38.9747 27.4181 38.8913 25.516C38.8345 23.9702 38.6948 22.4283 38.4728 20.8962C38.4091 20.4334 38.3184 19.9745 38.201 19.5214C38.1214 19.2332 38.0211 18.8592 37.7338 18.6944C37.3608 18.4792 37.0104 18.7437 36.8533 19.0664C36.6958 19.4269 36.579 19.8024 36.5051 20.1866C36.2033 21.5377 36.0503 22.9253 35.9397 24.302C35.7895 26.1871 35.7518 28.0788 35.8271 29.9679ZM36.8068 25.7331C36.8461 24.9212 36.9074 24.1106 36.9908 23.3013C37.028 22.947 37.0693 22.5937 37.1169 22.2414C37.1169 22.196 37.1282 22.1515 37.1344 22.1061C37.1344 22.0943 37.1344 22.0854 37.1344 22.0785C37.1344 22.0716 37.1344 22.0627 37.1344 22.0519L37.1654 21.8377C37.1882 21.6877 37.2119 21.5387 37.2367 21.3906C37.2905 21.0719 37.3494 20.7531 37.4207 20.4373L37.4424 20.5527C37.4899 20.8103 37.5302 21.0699 37.5685 21.3304V21.3472V21.366C37.5747 21.4064 37.5799 21.4469 37.585 21.4864C37.5943 21.5564 37.6036 21.6255 37.6119 21.6946C37.6326 21.8545 37.6512 22.0154 37.6698 22.1752C37.7524 22.9154 37.8144 23.6556 37.861 24.3997C37.9829 26.1966 38.0163 27.9941 37.9612 29.7923C37.9168 31.3457 37.8196 32.9011 37.6274 34.4436C37.616 34.5275 37.6057 34.6104 37.5943 34.6943C37.5943 34.717 37.5788 34.8078 37.5757 34.8344C37.5571 34.9637 37.5375 35.094 37.5168 35.2233C37.4893 35.397 37.4586 35.57 37.4248 35.7424C37.3876 35.5746 37.3532 35.4062 37.3215 35.2371C37.2677 34.9539 37.2181 34.6706 37.1768 34.3854L37.1396 34.1288C37.1396 34.1288 37.1396 34.1169 37.1396 34.1091C37.1334 34.0676 37.1282 34.0261 37.122 33.9847C37.0993 33.8136 37.0776 33.6429 37.0569 33.4725C36.9653 32.6994 36.8964 31.9243 36.8502 31.1473C36.7334 29.3446 36.719 27.5372 36.8068 25.7331Z" fill="#FF7F41"/>
</g>
<path d="M30.3172 44.842C27.8167 44.842 25.7895 37.3018 25.7895 27.9994C25.7895 18.697 27.8167 11.1578 30.3172 11.1578C32.8177 11.1578 34.2105 18.698 34.2105 27.9994C34.2105 37.3008 32.8131 44.842 30.3172 44.842Z" fill="#246BFD"/>
<g filter="url(#filter1_d_431_504)">
<path d="M192 8C192 3.58172 195.582 0 200 0H229C233.418 0 237 3.58172 237 8V9C237 13.4183 233.418 17 229 17H192V8Z" fill="#FF7F41"/>
</g>
<path d="M204.748 7.918C205.177 8.142 205.513 8.45 205.756 8.842C205.999 9.234 206.12 9.68667 206.12 10.2C206.12 11.0027 205.835 11.67 205.266 12.202C204.697 12.734 204.001 13 203.18 13H198.98V3.2H202.872C203.675 3.2 204.351 3.46133 204.902 3.984C205.462 4.49733 205.742 5.14133 205.742 5.916C205.742 6.76533 205.411 7.43267 204.748 7.918ZM202.872 4.712H200.59V7.288H202.872C203.227 7.288 203.525 7.16667 203.768 6.924C204.011 6.672 204.132 6.364 204.132 6C204.132 5.636 204.011 5.33267 203.768 5.09C203.525 4.838 203.227 4.712 202.872 4.712ZM203.18 11.488C203.553 11.488 203.866 11.3573 204.118 11.096C204.379 10.8253 204.51 10.4987 204.51 10.116C204.51 9.73333 204.379 9.41133 204.118 9.15C203.866 8.87933 203.553 8.744 203.18 8.744H200.59V11.488H203.18ZM208.685 10.144C208.797 10.676 209.054 11.0867 209.455 11.376C209.857 11.656 210.347 11.796 210.925 11.796C211.728 11.796 212.33 11.5067 212.731 10.928L213.977 11.656C213.287 12.6733 212.265 13.182 210.911 13.182C209.773 13.182 208.853 12.8367 208.153 12.146C207.453 11.446 207.103 10.564 207.103 9.5C207.103 8.45467 207.449 7.582 208.139 6.882C208.83 6.17267 209.717 5.818 210.799 5.818C211.826 5.818 212.666 6.17733 213.319 6.896C213.982 7.61467 214.313 8.48733 214.313 9.514C214.313 9.67267 214.295 9.88267 214.257 10.144H208.685ZM208.671 8.912H212.787C212.685 8.34267 212.447 7.91333 212.073 7.624C211.709 7.33467 211.28 7.19 210.785 7.19C210.225 7.19 209.759 7.344 209.385 7.652C209.012 7.96 208.774 8.38 208.671 8.912ZM219.331 7.456H217.595V10.816C217.595 11.1053 217.66 11.3153 217.791 11.446C217.922 11.5673 218.113 11.6373 218.365 11.656C218.626 11.6653 218.948 11.6607 219.331 11.642V13C218.174 13.14 217.343 13.042 216.839 12.706C216.335 12.3607 216.083 11.7307 216.083 10.816V7.456H214.795V6H216.083V4.488L217.595 4.04V6H219.331V7.456ZM225.959 6H227.471V13H225.959V11.992C225.39 12.7853 224.573 13.182 223.509 13.182C222.548 13.182 221.727 12.8273 221.045 12.118C220.364 11.3993 220.023 10.5267 220.023 9.5C220.023 8.464 220.364 7.59133 221.045 6.882C221.727 6.17267 222.548 5.818 223.509 5.818C224.573 5.818 225.39 6.21 225.959 6.994V6ZM222.165 11.11C222.585 11.53 223.113 11.74 223.747 11.74C224.382 11.74 224.909 11.53 225.329 11.11C225.749 10.6807 225.959 10.144 225.959 9.5C225.959 8.856 225.749 8.324 225.329 7.904C224.909 7.47467 224.382 7.26 223.747 7.26C223.113 7.26 222.585 7.47467 222.165 7.904C221.745 8.324 221.535 8.856 221.535 9.5C221.535 10.144 221.745 10.6807 222.165 11.11Z" fill="white"/>
<defs>
<filter id="filter0_d_431_504" x="28.7895" y="8.61646" width="23.1579" height="38.9473" filterUnits="userSpaceOnUse" color-interpolation-filters="sRGB">
<feFlood flood-opacity="0" result="BackgroundImageFix"/>
<feColorMatrix in="SourceAlpha" type="matrix" values="0 0 0 0 0 0 0 0 0 0 0 0 0 0 0 0 0 0 127 0" result="hardAlpha"/>
<feOffset dx="3"/>
<feGaussianBlur stdDeviation="5"/>
<feComposite in2="hardAlpha" operator="out"/>
<feColorMatrix type="matrix" values="0 0 0 0 1 0 0 0 0 0.498039 0 0 0 0 0.254902 0 0 0 1 0"/>
<feBlend mode="normal" in2="BackgroundImageFix" result="effect1_dropShadow_431_504"/>
<feBlend mode="normal" in="SourceGraphic" in2="effect1_dropShadow_431_504" result="shape"/>
</filter>
<filter id="filter1_d_431_504" x="188" y="0" width="53" height="25" filterUnits="userSpaceOnUse" color-interpolation-filters="sRGB">
<feFlood flood-opacity="0" result="BackgroundImageFix"/>
<feColorMatrix in="SourceAlpha" type="matrix" values="0 0 0 0 0 0 0 0 0 0 0 0 0 0 0 0 0 0 127 0" result="hardAlpha"/>
<feOffset dy="4"/>
<feGaussianBlur stdDeviation="2"/>
<feComposite in2="hardAlpha" operator="out"/>
<feColorMatrix type="matrix" values="0 0 0 0 0 0 0 0 0 0 0 0 0 0 0 0 0 0 0.25 0"/>
<feBlend mode="normal" in2="BackgroundImageFix" result="effect1_dropShadow_431_504"/>
<feBlend mode="normal" in="SourceGraphic" in2="effect1_dropShadow_431_504" result="shape"/>
</filter>
<linearGradient id="paint0_linear_431_504" x1="50.5238" y1="14.5" x2="123.623" y2="39.1968" gradientUnits="userSpaceOnUse">
<stop stop-color="#FF7F41" stop-opacity="0.74"/>
<stop offset="1" stop-color="#FF7F41" stop-opacity="0"/>
</linearGradient>
</defs>
</svg>
