<svg width="189" height="56" viewBox="0 0 189 56" fill="none" xmlns="http://www.w3.org/2000/svg">
    <path opacity="0.8" d="M24.0249 52C10.7704 52 0.0248928 41.2547 0.0248928 27.9994C0.0248928 14.7441 10.7692 4 24.0249 4" fill="#246BFD"/>
    <path d="M24.3072 52C20.9641 52 17.0252 41.7168 17.0252 28.4614C17.0252 15.2061 20.9641 4 24.3072 4C27.6504 4 29.6567 14.7453 29.6567 27.9994C29.6567 41.2535 27.6504 52 24.3072 52Z" fill="#246BFD"/>
    <path d="M42.9925 30.3616C43.0595 32.3167 43.2442 34.2666 43.5456 36.2014C43.6448 36.8196 43.7564 37.4378 43.9177 38.0454C44.0094 38.4007 44.1099 38.7986 44.3195 39.1112C44.4072 39.2499 44.5369 39.3597 44.6915 39.4263C44.7674 39.4594 44.8499 39.4766 44.9334 39.4766C45.0168 39.4766 45.0993 39.4594 45.1752 39.4263C45.5075 39.2984 45.6638 38.9407 45.7717 38.6138C45.916 38.1399 46.0246 37.6566 46.0966 37.1678C46.3776 35.4092 46.5573 33.6372 46.6348 31.8598C46.758 29.582 46.7696 27.3018 46.6696 25.0192C46.6014 23.1644 46.4338 21.314 46.1673 19.4755C46.0909 18.9202 45.982 18.3695 45.8411 17.8258C45.7457 17.48 45.6254 17.0311 45.2806 16.8333C44.8329 16.5752 44.4125 16.8926 44.224 17.2798C44.0349 17.7124 43.8948 18.163 43.8061 18.624C43.4439 20.2453 43.2604 21.9104 43.1277 23.5625C42.9473 25.8246 42.9022 28.0947 42.9925 30.3616ZM44.1682 25.2798C44.2153 24.3055 44.2889 23.3328 44.3889 22.3617C44.4336 21.9365 44.4832 21.5125 44.5402 21.0897C44.5402 21.0352 44.5539 20.982 44.5613 20.9275C44.5613 20.9133 44.5613 20.9026 44.5613 20.8943C44.5613 20.886 44.5613 20.8754 44.5613 20.8623L44.5985 20.6053C44.6258 20.4253 44.6543 20.2465 44.6841 20.0689C44.7486 19.6863 44.8193 19.3038 44.9048 18.9248L44.9309 19.0634C44.9879 19.3725 45.0363 19.684 45.0822 19.9966V20.0167V20.0393C45.0896 20.0878 45.0958 20.1364 45.102 20.1837C45.1132 20.2678 45.1243 20.3507 45.1343 20.4336C45.1591 20.6255 45.1814 20.8185 45.2037 21.0104C45.3029 21.8986 45.3773 22.7868 45.4331 23.6798C45.5795 25.836 45.6196 27.993 45.5534 30.1508C45.5001 32.0149 45.3835 33.8814 45.1529 35.7324C45.1392 35.8331 45.1268 35.9326 45.1132 36.0332C45.1132 36.0605 45.0946 36.1694 45.0909 36.2014C45.0685 36.3566 45.045 36.5129 45.0202 36.668C44.9871 36.8765 44.9503 37.0841 44.9098 37.291C44.8651 37.0896 44.8238 36.8875 44.7858 36.6846C44.7213 36.3447 44.6618 36.0048 44.6122 35.6626L44.5675 35.3546C44.5675 35.3546 44.5675 35.3404 44.5675 35.331C44.5601 35.2812 44.5539 35.2315 44.5464 35.1817C44.5191 34.9765 44.4931 34.7716 44.4683 34.5671C44.3583 33.6394 44.2757 32.7093 44.2203 31.7769C44.0801 29.6137 44.0627 27.4448 44.1682 25.2798Z" fill="#FF7F41"/>
    <path d="M36.3808 48.2104C33.3802 48.2104 30.9475 39.1622 30.9475 27.9993C30.9475 16.8364 33.3802 7.78939 36.3808 7.78939C39.3814 7.78939 41.0527 16.8376 41.0527 27.9993C41.0527 39.161 39.3758 48.2104 36.3808 48.2104Z" fill="#246BFD"/>
    <path d="M71.424 25.452V34.028C71.424 34.6253 71.5627 35.0627 71.84 35.34C72.1387 35.596 72.6293 35.724 73.312 35.724H75.392V39.5H72.576C68.8 39.5 66.912 37.6653 66.912 33.996V25.452H64.8V21.772H66.912V17.388H71.424V21.772H75.392V25.452H71.424ZM95.0943 30.252C95.0943 30.892 95.0516 31.468 94.9663 31.98H82.0063C82.1129 33.26 82.5609 34.2627 83.3503 34.988C84.1396 35.7133 85.1103 36.076 86.2623 36.076C87.9263 36.076 89.1103 35.3613 89.8143 33.932H94.6463C94.1343 35.6387 93.1529 37.0467 91.7023 38.156C90.2516 39.244 88.4703 39.788 86.3583 39.788C84.6516 39.788 83.1156 39.4147 81.7503 38.668C80.4063 37.9 79.3503 36.8227 78.5823 35.436C77.8356 34.0493 77.4622 32.4493 77.4622 30.636C77.4622 28.8013 77.8356 27.1907 78.5823 25.804C79.3289 24.4173 80.3743 23.3507 81.7183 22.604C83.0623 21.8573 84.6089 21.484 86.3583 21.484C88.0436 21.484 89.5476 21.8467 90.8703 22.572C92.2143 23.2973 93.2489 24.332 93.9743 25.676C94.7209 26.9987 95.0943 28.524 95.0943 30.252ZM90.4543 28.972C90.4329 27.82 90.0169 26.9027 89.2063 26.22C88.3956 25.516 87.4036 25.164 86.2303 25.164C85.1209 25.164 84.1823 25.5053 83.4143 26.188C82.6676 26.8493 82.2089 27.7773 82.0383 28.972H90.4543ZM102.844 15.82V39.5H98.3643V15.82H102.844ZM123.751 30.252C123.751 30.892 123.708 31.468 123.623 31.98H110.663C110.769 33.26 111.217 34.2627 112.007 34.988C112.796 35.7133 113.767 36.076 114.919 36.076C116.583 36.076 117.767 35.3613 118.471 33.932H123.303C122.791 35.6387 121.809 37.0467 120.359 38.156C118.908 39.244 117.127 39.788 115.015 39.788C113.308 39.788 111.772 39.4147 110.407 38.668C109.063 37.9 108.007 36.8227 107.239 35.436C106.492 34.0493 106.118 32.4493 106.118 30.636C106.118 28.8013 106.492 27.1907 107.239 25.804C107.985 24.4173 109.031 23.3507 110.375 22.604C111.719 21.8573 113.265 21.484 115.015 21.484C116.7 21.484 118.204 21.8467 119.527 22.572C120.871 23.2973 121.905 24.332 122.631 25.676C123.377 26.9987 123.751 28.524 123.751 30.252ZM119.111 28.972C119.089 27.82 118.673 26.9027 117.863 26.22C117.052 25.516 116.06 25.164 114.887 25.164C113.777 25.164 112.839 25.5053 112.071 26.188C111.324 26.8493 110.865 27.7773 110.695 28.972H119.111ZM131.501 24.364C132.077 23.5107 132.866 22.8173 133.869 22.284C134.893 21.7507 136.055 21.484 137.357 21.484C138.871 21.484 140.237 21.8573 141.453 22.604C142.69 23.3507 143.661 24.4173 144.365 25.804C145.09 27.1693 145.453 28.7587 145.453 30.572C145.453 32.3853 145.09 33.996 144.365 35.404C143.661 36.7907 142.69 37.868 141.453 38.636C140.237 39.404 138.871 39.788 137.357 39.788C136.034 39.788 134.871 39.532 133.869 39.02C132.887 38.4867 132.098 37.804 131.501 36.972V39.5H127.021V15.82H131.501V24.364ZM140.877 30.572C140.877 29.5053 140.653 28.588 140.205 27.82C139.778 27.0307 139.202 26.4333 138.477 26.028C137.773 25.6227 137.005 25.42 136.173 25.42C135.362 25.42 134.594 25.6333 133.869 26.06C133.165 26.4653 132.589 27.0627 132.141 27.852C131.714 28.6413 131.501 29.5693 131.501 30.636C131.501 31.7027 131.714 32.6307 132.141 33.42C132.589 34.2093 133.165 34.8173 133.869 35.244C134.594 35.6493 135.362 35.852 136.173 35.852C137.005 35.852 137.773 35.6387 138.477 35.212C139.202 34.7853 139.778 34.1773 140.205 33.388C140.653 32.5987 140.877 31.66 140.877 30.572ZM156.58 39.788C154.873 39.788 153.337 39.4147 151.972 38.668C150.607 37.9 149.529 36.8227 148.74 35.436C147.972 34.0493 147.588 32.4493 147.588 30.636C147.588 28.8227 147.983 27.2227 148.772 25.836C149.583 24.4493 150.681 23.3827 152.068 22.636C153.455 21.868 155.001 21.484 156.708 21.484C158.415 21.484 159.961 21.868 161.348 22.636C162.735 23.3827 163.823 24.4493 164.612 25.836C165.423 27.2227 165.828 28.8227 165.828 30.636C165.828 32.4493 165.412 34.0493 164.58 35.436C163.769 36.8227 162.66 37.9 161.252 38.668C159.865 39.4147 158.308 39.788 156.58 39.788ZM156.58 35.884C157.391 35.884 158.148 35.692 158.852 35.308C159.577 34.9027 160.153 34.3053 160.58 33.516C161.007 32.7267 161.22 31.7667 161.22 30.636C161.22 28.9507 160.772 27.66 159.876 26.764C159.001 25.8467 157.924 25.388 156.644 25.388C155.364 25.388 154.287 25.8467 153.412 26.764C152.559 27.66 152.132 28.9507 152.132 30.636C152.132 32.3213 152.548 33.6227 153.38 34.54C154.233 35.436 155.3 35.884 156.58 35.884ZM178.938 21.516C181.05 21.516 182.757 22.188 184.058 23.532C185.36 24.8547 186.01 26.7107 186.01 29.1V39.5H181.53V29.708C181.53 28.3 181.178 27.2227 180.474 26.476C179.77 25.708 178.81 25.324 177.594 25.324C176.357 25.324 175.376 25.708 174.65 26.476C173.946 27.2227 173.594 28.3 173.594 29.708V39.5H169.114V21.772H173.594V23.98C174.192 23.212 174.949 22.6147 175.866 22.188C176.805 21.74 177.829 21.516 178.938 21.516Z" fill="black"/>
</svg>
