<svg width="145" height="34" viewBox="0 0 145 34" fill="none" xmlns="http://www.w3.org/2000/svg">
<path opacity="0.8" d="M17.5164 34C8.44126 34 1.08395 26.8441 1.08395 18.0166C1.08395 9.18911 8.44044 2.03401 17.5164 2.03401" fill="#246BFD"/>
<path d="M17.7091 34C15.4201 34 12.7232 27.1518 12.7232 18.3243C12.7232 9.4968 15.4201 2.03401 17.7091 2.03401C19.9981 2.03401 21.3719 9.1899 21.3719 18.0166C21.3719 26.8433 19.9981 34 17.7091 34Z" fill="#246BFD"/>
<path d="M30.5035 19.5861C30.5494 20.8881 30.6758 22.1866 30.8822 23.4751C30.9501 23.8868 31.0266 24.2985 31.1369 24.7031C31.1998 24.9397 31.2686 25.2048 31.4121 25.413C31.4721 25.5053 31.5609 25.5785 31.6668 25.6228C31.7188 25.6448 31.7752 25.6562 31.8324 25.6562C31.8895 25.6562 31.946 25.6448 31.9979 25.6228C32.2255 25.5376 32.3325 25.2994 32.4064 25.0817C32.5052 24.7661 32.5795 24.4442 32.6288 24.1187C32.8213 22.9476 32.9443 21.7675 32.9973 20.5838C33.0817 19.0669 33.0896 17.5484 33.0211 16.0283C32.9745 14.793 32.8597 13.5608 32.6772 12.3364C32.6249 11.9666 32.5504 11.5998 32.4539 11.2377C32.3885 11.0074 32.3062 10.7085 32.0701 10.5768C31.7636 10.4049 31.4757 10.6162 31.3467 10.8742C31.2172 11.1622 31.1213 11.4623 31.0605 11.7693C30.8126 12.849 30.6869 13.958 30.5961 15.0582C30.4726 16.5646 30.4417 18.0764 30.5035 19.5861ZM31.3085 16.2018C31.3407 15.553 31.3911 14.9052 31.4596 14.2584C31.4902 13.9753 31.5241 13.693 31.5632 13.4114C31.5632 13.3751 31.5725 13.3396 31.5776 13.3033C31.5776 13.2939 31.5776 13.2868 31.5776 13.2813C31.5776 13.2757 31.5776 13.2686 31.5776 13.26L31.6031 13.0888C31.6218 12.9689 31.6413 12.8498 31.6617 12.7315C31.7058 12.4768 31.7542 12.222 31.8128 11.9697L31.8307 12.0619C31.8697 12.2678 31.9028 12.4752 31.9343 12.6834V12.6968V12.7118C31.9394 12.7442 31.9436 12.7765 31.9478 12.808C31.9555 12.864 31.9631 12.9192 31.9699 12.9744C31.9869 13.1022 32.0022 13.2308 32.0175 13.3585C32.0854 13.9501 32.1363 14.5416 32.1746 15.1363C32.2748 16.5722 32.3022 18.0087 32.2569 19.4457C32.2204 20.6871 32.1406 21.9301 31.9827 23.1628C31.9733 23.2299 31.9648 23.2961 31.9555 23.3631C31.9555 23.3813 31.9427 23.4538 31.9402 23.4751C31.9249 23.5785 31.9088 23.6826 31.8918 23.7859C31.8692 23.9247 31.844 24.063 31.8162 24.2007C31.7857 24.0667 31.7574 23.9321 31.7313 23.7969C31.6872 23.5706 31.6464 23.3442 31.6124 23.1163L31.5819 22.9112C31.5819 22.9112 31.5819 22.9018 31.5819 22.8955C31.5768 22.8623 31.5725 22.8292 31.5674 22.7961C31.5488 22.6594 31.5309 22.5229 31.5139 22.3867C31.4387 21.7689 31.3821 21.1495 31.3441 20.5286C31.2482 19.088 31.2363 17.6436 31.3085 16.2018Z" fill="#FF7F41"/>
<path d="M25.9758 31.4766C23.9213 31.4766 22.2557 25.4508 22.2557 18.0168C22.2557 10.5828 23.9213 4.55783 25.9758 4.55783C28.0302 4.55783 29.1746 10.5836 29.1746 18.0168C29.1746 25.45 28.0264 31.4766 25.9758 31.4766Z" fill="#246BFD"/>
<path d="M145 25.537C145 25.7824 144.952 26.0117 144.856 26.225C144.771 26.4277 144.653 26.609 144.504 26.769C144.355 26.9184 144.173 27.0357 143.96 27.121C143.757 27.2064 143.539 27.249 143.304 27.249C143.069 27.249 142.84 27.2064 142.616 27.121C142.403 27.0357 142.216 26.9184 142.056 26.769C141.896 26.609 141.768 26.4277 141.672 26.225C141.576 26.0117 141.528 25.7824 141.528 25.537V19.585C141.528 19.4997 141.533 19.4357 141.544 19.393C141.523 18.8704 141.416 18.3797 141.224 17.921C141.032 17.4624 140.771 17.0624 140.44 16.721C140.109 16.3797 139.72 16.113 139.272 15.921C138.835 15.7184 138.349 15.617 137.816 15.617C137.272 15.617 136.771 15.7184 136.312 15.921C135.853 16.113 135.459 16.385 135.128 16.737C134.808 17.089 134.552 17.505 134.36 17.985C134.179 18.4544 134.088 18.961 134.088 19.505V25.537C134.088 25.7824 134.045 26.0117 133.96 26.225C133.875 26.4277 133.752 26.609 133.592 26.769C133.443 26.9184 133.267 27.0357 133.064 27.121C132.861 27.2064 132.637 27.249 132.392 27.249C132.157 27.249 131.933 27.2064 131.72 27.121C131.507 27.0357 131.315 26.9184 131.144 26.769C130.984 26.609 130.856 26.4277 130.76 26.225C130.664 26.0117 130.616 25.7824 130.616 25.537V19.505C130.616 18.481 130.797 17.5264 131.16 16.641C131.533 15.745 132.04 14.9664 132.68 14.305C133.331 13.633 134.093 13.105 134.968 12.721C135.853 12.337 136.803 12.145 137.816 12.145C138.84 12.145 139.789 12.337 140.664 12.721C141.539 13.105 142.296 13.633 142.936 14.305C143.576 14.9664 144.077 15.745 144.44 16.641C144.813 17.5264 145 18.481 145 19.505V25.537Z" fill="black"/>
<path d="M117.096 19.777C117.096 20.3424 117.202 20.881 117.416 21.393C117.64 21.8944 117.938 22.337 118.312 22.721C118.696 23.0944 119.138 23.393 119.64 23.617C120.141 23.8304 120.68 23.937 121.256 23.937C121.832 23.937 122.37 23.8304 122.872 23.617C123.384 23.393 123.826 23.0944 124.2 22.721C124.573 22.337 124.866 21.8944 125.08 21.393C125.293 20.881 125.4 20.3424 125.4 19.777C125.4 19.201 125.293 18.6624 125.08 18.161C124.866 17.649 124.573 17.2064 124.2 16.833C123.826 16.4597 123.384 16.1664 122.872 15.953C122.37 15.729 121.832 15.617 121.256 15.617C120.69 15.617 120.152 15.729 119.64 15.953C119.138 16.1664 118.696 16.4597 118.312 16.833C117.938 17.2064 117.64 17.649 117.416 18.161C117.202 18.6624 117.096 19.201 117.096 19.777ZM113.624 19.777C113.624 18.721 113.826 17.7344 114.232 16.817C114.637 15.889 115.186 15.0784 115.88 14.385C116.573 13.6917 117.378 13.1477 118.296 12.753C119.224 12.3477 120.21 12.145 121.256 12.145C122.312 12.145 123.304 12.3477 124.232 12.753C125.16 13.1477 125.965 13.6917 126.648 14.385C127.341 15.0784 127.885 15.889 128.28 16.817C128.674 17.7344 128.872 18.721 128.872 19.777C128.872 20.8224 128.674 21.809 128.28 22.737C127.885 23.665 127.341 24.4757 126.648 25.169C125.965 25.8624 125.16 26.4117 124.232 26.817C123.304 27.2117 122.312 27.409 121.256 27.409C120.21 27.409 119.224 27.2117 118.296 26.817C117.378 26.4117 116.573 25.8624 115.88 25.169C115.186 24.4757 114.637 23.665 114.232 22.737C113.826 21.809 113.624 20.8224 113.624 19.777Z" fill="black"/>
<path d="M97.2976 8.39833C97.2976 8.14233 97.3403 7.90767 97.4256 7.69433C97.5216 7.47033 97.6443 7.27833 97.7936 7.11833C97.9536 6.94766 98.1403 6.81966 98.3536 6.73433C98.567 6.63833 98.7963 6.59033 99.0416 6.59033C99.2976 6.59033 99.527 6.63833 99.7296 6.73433C99.943 6.81966 100.124 6.94766 100.274 7.11833C100.434 7.27833 100.556 7.47033 100.642 7.69433C100.727 7.90767 100.77 8.14233 100.77 8.39833V13.3903C101.378 12.9957 102.028 12.6917 102.722 12.4783C103.426 12.2543 104.162 12.1423 104.93 12.1423C105.986 12.1423 106.972 12.345 107.89 12.7503C108.818 13.145 109.623 13.689 110.306 14.3823C110.999 15.065 111.543 15.8703 111.938 16.7983C112.343 17.7263 112.546 18.7183 112.546 19.7743C112.546 20.8197 112.343 21.8063 111.938 22.7343C111.543 23.6623 110.999 24.473 110.306 25.1663C109.623 25.8597 108.818 26.409 107.89 26.8143C106.972 27.209 105.986 27.4063 104.93 27.4063C103.884 27.4063 102.898 27.209 101.97 26.8143C101.042 26.409 100.231 25.8597 99.5376 25.1663C98.8443 24.473 98.295 23.6623 97.8896 22.7343C97.495 21.8063 97.2976 20.8197 97.2976 19.7743V8.39833ZM100.77 19.7743C100.77 20.3397 100.876 20.8783 101.09 21.3903C101.314 21.8917 101.612 22.3343 101.986 22.7183C102.37 23.0917 102.812 23.3903 103.314 23.6143C103.815 23.8277 104.354 23.9343 104.93 23.9343C105.506 23.9343 106.044 23.8277 106.546 23.6143C107.047 23.3903 107.484 23.0917 107.858 22.7183C108.242 22.3343 108.54 21.8917 108.754 21.3903C108.967 20.8783 109.074 20.3397 109.074 19.7743C109.074 19.1983 108.967 18.6597 108.754 18.1583C108.54 17.6463 108.242 17.2037 107.858 16.8303C107.484 16.457 107.047 16.1637 106.546 15.9503C106.044 15.7263 105.506 15.6143 104.93 15.6143C104.354 15.6143 103.815 15.7263 103.314 15.9503C102.812 16.1637 102.37 16.457 101.986 16.8303C101.612 17.2037 101.314 17.6463 101.09 18.1583C100.876 18.6597 100.77 19.1983 100.77 19.7743Z" fill="black"/>
<path d="M83.7614 21.329C83.9001 21.7237 84.0921 22.0864 84.3374 22.417C84.5934 22.737 84.8868 23.0144 85.2174 23.249C85.5481 23.473 85.9108 23.649 86.3054 23.777C86.7001 23.8944 87.1161 23.953 87.5534 23.953C88.6521 23.953 89.5161 23.665 90.1454 23.089C90.3588 22.9397 90.5668 22.833 90.7694 22.769C90.9721 22.6944 91.1641 22.657 91.3454 22.657C91.6441 22.657 91.9108 22.737 92.1454 22.897C92.3801 23.0464 92.5721 23.2437 92.7214 23.489C92.8281 23.6597 92.9028 23.8464 92.9454 24.049C92.9988 24.241 93.0094 24.4384 92.9774 24.641C92.9561 24.8437 92.8921 25.0464 92.7854 25.249C92.6894 25.441 92.5401 25.617 92.3374 25.777C92.1028 25.9904 91.8361 26.1984 91.5374 26.401C91.2388 26.593 90.8921 26.7637 90.4974 26.913C90.1134 27.0624 89.6761 27.1797 89.1854 27.265C88.7054 27.361 88.1614 27.409 87.5534 27.409C86.4974 27.409 85.5054 27.2117 84.5774 26.817C83.6494 26.4117 82.8388 25.8624 82.1454 25.169C81.4521 24.4757 80.9028 23.6704 80.4974 22.753C80.0921 21.825 79.8894 20.833 79.8894 19.777C79.8894 18.721 80.0921 17.729 80.4974 16.801C80.9028 15.873 81.4521 15.0677 82.1454 14.385C82.8388 13.6917 83.6494 13.1477 84.5774 12.753C85.5054 12.3477 86.4974 12.145 87.5534 12.145C88.5988 12.145 89.5801 12.3424 90.4974 12.737C91.4254 13.1317 92.2361 13.6704 92.9294 14.353C93.6334 15.025 94.1881 15.8197 94.5934 16.737C95.0094 17.6544 95.2228 18.6357 95.2334 19.681C95.2334 20.1717 95.0734 20.5717 94.7534 20.881C94.4441 21.1797 94.0334 21.329 93.5214 21.329H83.7614ZM91.6654 18.449C91.5481 18.0117 91.3614 17.617 91.1054 17.265C90.8601 16.913 90.5614 16.6144 90.2094 16.369C89.8574 16.1237 89.4628 15.937 89.0254 15.809C88.5881 15.681 88.1241 15.617 87.6334 15.617C87.1428 15.617 86.6788 15.6864 86.2414 15.825C85.8148 15.953 85.4254 16.145 85.0734 16.401C84.7321 16.6464 84.4388 16.945 84.1934 17.297C83.9481 17.6384 83.7668 18.0224 83.6494 18.449H91.6654Z" fill="black"/>
<path d="M77.2304 23.7423C77.4757 23.7423 77.705 23.7903 77.9184 23.8863C78.1317 23.9823 78.313 24.1157 78.4624 24.2863C78.6117 24.4463 78.729 24.633 78.8144 24.8463C78.8997 25.0597 78.9424 25.2837 78.9424 25.5183C78.9424 26.009 78.7824 26.4143 78.4624 26.7343C78.1424 27.0543 77.7317 27.2143 77.2304 27.2143C76.505 27.2143 75.8224 27.0917 75.1824 26.8463C74.553 26.601 73.9984 26.2597 73.5184 25.8223C73.0384 25.385 72.6597 24.857 72.3824 24.2383C72.105 23.6197 71.9557 22.937 71.9344 22.1903V8.33433C71.9344 8.089 71.977 7.85966 72.0624 7.64633C72.1584 7.433 72.281 7.25167 72.4304 7.10233C72.5797 6.94233 72.7557 6.81966 72.9584 6.73433C73.161 6.63833 73.3797 6.59033 73.6144 6.59033C73.8597 6.59033 74.089 6.63833 74.3024 6.73433C74.5157 6.81966 74.7024 6.94233 74.8624 7.10233C75.033 7.25167 75.1664 7.433 75.2624 7.64633C75.3584 7.85966 75.4064 8.089 75.4064 8.33433V22.0783C75.4064 22.633 75.577 23.049 75.9184 23.3263C76.2597 23.6037 76.697 23.7423 77.2304 23.7423Z" fill="black"/>
<path d="M58.4958 21.329C58.6345 21.7237 58.8265 22.0864 59.0718 22.417C59.3278 22.737 59.6211 23.0144 59.9518 23.249C60.2825 23.473 60.6451 23.649 61.0398 23.777C61.4345 23.8944 61.8505 23.953 62.2878 23.953C63.3865 23.953 64.2505 23.665 64.8798 23.089C65.0931 22.9397 65.3011 22.833 65.5038 22.769C65.7065 22.6944 65.8985 22.657 66.0798 22.657C66.3785 22.657 66.6451 22.737 66.8798 22.897C67.1145 23.0464 67.3065 23.2437 67.4558 23.489C67.5625 23.6597 67.6371 23.8464 67.6798 24.049C67.7331 24.241 67.7438 24.4384 67.7118 24.641C67.6905 24.8437 67.6265 25.0464 67.5198 25.249C67.4238 25.441 67.2745 25.617 67.0718 25.777C66.8371 25.9904 66.5705 26.1984 66.2718 26.401C65.9731 26.593 65.6265 26.7637 65.2318 26.913C64.8478 27.0624 64.4105 27.1797 63.9198 27.265C63.4398 27.361 62.8958 27.409 62.2878 27.409C61.2318 27.409 60.2398 27.2117 59.3118 26.817C58.3838 26.4117 57.5731 25.8624 56.8798 25.169C56.1865 24.4757 55.6371 23.6704 55.2318 22.753C54.8265 21.825 54.6238 20.833 54.6238 19.777C54.6238 18.721 54.8265 17.729 55.2318 16.801C55.6371 15.873 56.1865 15.0677 56.8798 14.385C57.5731 13.6917 58.3838 13.1477 59.3118 12.753C60.2398 12.3477 61.2318 12.145 62.2878 12.145C63.3331 12.145 64.3145 12.3424 65.2318 12.737C66.1598 13.1317 66.9705 13.6704 67.6638 14.353C68.3678 15.025 68.9225 15.8197 69.3278 16.737C69.7438 17.6544 69.9571 18.6357 69.9678 19.681C69.9678 20.1717 69.8078 20.5717 69.4878 20.881C69.1785 21.1797 68.7678 21.329 68.2558 21.329H58.4958ZM66.3998 18.449C66.2825 18.0117 66.0958 17.617 65.8398 17.265C65.5945 16.913 65.2958 16.6144 64.9438 16.369C64.5918 16.1237 64.1971 15.937 63.7598 15.809C63.3225 15.681 62.8585 15.617 62.3678 15.617C61.8771 15.617 61.4131 15.6864 60.9758 15.825C60.5491 15.953 60.1598 16.145 59.8078 16.401C59.4665 16.6464 59.1731 16.945 58.9278 17.297C58.6825 17.6384 58.5011 18.0224 58.3838 18.449H66.3998Z" fill="black"/>
<path d="M44.1837 12.3375H49.7517C49.997 12.3375 50.2264 12.3855 50.4397 12.4815C50.653 12.5668 50.8397 12.6895 50.9997 12.8495C51.1597 13.0095 51.2824 13.1961 51.3677 13.4095C51.4637 13.6228 51.5117 13.8521 51.5117 14.0975C51.5117 14.3321 51.4637 14.5561 51.3677 14.7695C51.2824 14.9721 51.1597 15.1535 50.9997 15.3135C50.8397 15.4628 50.653 15.5855 50.4397 15.6815C50.2264 15.7668 49.997 15.8095 49.7517 15.8095H44.1837V19.8575C44.1837 20.4228 44.2904 20.9561 44.5037 21.4575C44.7277 21.9481 45.0264 22.3801 45.3997 22.7535C45.773 23.1161 46.2104 23.4041 46.7117 23.6175C47.2237 23.8308 47.7677 23.9375 48.3437 23.9375C48.8557 23.9375 49.3304 23.8681 49.7677 23.7295C50.205 23.5801 50.6104 23.3401 50.9837 23.0095C51.165 22.8388 51.3677 22.7001 51.5917 22.5935C51.8157 22.4761 52.0504 22.4175 52.2957 22.4175C52.6904 22.4175 53.0477 22.5615 53.3677 22.8495C53.5597 23.0201 53.693 23.2228 53.7677 23.4575C53.853 23.6921 53.885 23.9375 53.8637 24.1935C53.853 24.4388 53.7944 24.6788 53.6877 24.9135C53.581 25.1481 53.4317 25.3561 53.2397 25.5375C52.5997 26.1561 51.8637 26.6255 51.0317 26.9455C50.1997 27.2548 49.3037 27.4095 48.3437 27.4095C47.2877 27.4095 46.2957 27.2121 45.3677 26.8175C44.4504 26.4228 43.645 25.8841 42.9517 25.2015C42.2584 24.5188 41.709 23.7188 41.3037 22.8015C40.909 21.8735 40.7117 20.8815 40.7117 19.8255V9.55346C40.7117 9.30812 40.7597 9.07879 40.8557 8.86546C40.9517 8.65212 41.0797 8.46546 41.2397 8.30546C41.3997 8.14546 41.5864 8.02279 41.7997 7.93746C42.013 7.84146 42.237 7.79346 42.4717 7.79346C42.7064 7.79346 42.925 7.84146 43.1277 7.93746C43.341 8.02279 43.5224 8.14546 43.6717 8.30546C43.8317 8.46546 43.9544 8.65212 44.0397 8.86546C44.1357 9.07879 44.1837 9.30812 44.1837 9.55346V12.3375Z" fill="black"/>
</svg>
