<svg width="148" height="36" viewBox="0 0 148 36" fill="none" xmlns="http://www.w3.org/2000/svg">
<path opacity="0.8" d="M17.5156 36C7.85091 36 0.0156193 28.1649 0.0156193 18.4996C0.0156193 8.83421 7.85003 0.999996 17.5156 0.999996" fill="#EBEBEB"/>
<path d="M17.7243 36C15.2866 36 12.4145 28.5018 12.4145 18.8365C12.4145 9.17111 15.2866 0.999996 17.7243 0.999996C20.162 0.999996 21.625 8.83509 21.625 18.4996C21.625 28.164 20.162 36 17.7243 36Z" fill="#EBEBEB"/>
<path d="M31.3479 20.2209C31.3968 21.6465 31.5314 23.0682 31.7512 24.4791C31.8236 24.9298 31.9049 25.3806 32.0225 25.8236C32.0894 26.0827 32.1627 26.3728 32.3155 26.6008C32.3794 26.7019 32.474 26.782 32.5868 26.8305C32.6421 26.8547 32.7022 26.8672 32.7631 26.8672C32.824 26.8672 32.8841 26.8547 32.9394 26.8305C33.1818 26.7373 33.2957 26.4765 33.3744 26.2381C33.4796 25.8925 33.5588 25.5401 33.6113 25.1837C33.8162 23.9014 33.9472 22.6093 34.0038 21.3133C34.0936 19.6524 34.102 17.9897 34.0291 16.3254C33.9794 14.9729 33.8572 13.6237 33.6629 12.2831C33.6072 11.8782 33.5278 11.4766 33.425 11.0802C33.3554 10.828 33.2677 10.5007 33.0163 10.3565C32.6899 10.1683 32.3833 10.3997 32.2459 10.6821C32.108 10.9975 32.0058 11.3261 31.9411 11.6622C31.6771 12.8444 31.5432 14.0586 31.4465 15.2632C31.315 16.9126 31.2821 18.5679 31.3479 20.2209ZM32.2052 16.5154C32.2395 15.805 32.2932 15.0957 32.3661 14.3876C32.3987 14.0776 32.4348 13.7684 32.4764 13.4601C32.4764 13.4204 32.4864 13.3815 32.4918 13.3418C32.4918 13.3314 32.4918 13.3237 32.4918 13.3176C32.4918 13.3116 32.4918 13.3038 32.4918 13.2943L32.5189 13.1069C32.5388 12.9757 32.5596 12.8453 32.5813 12.7157C32.6284 12.4368 32.6799 12.1579 32.7423 11.8815L32.7613 11.9826C32.8029 12.208 32.8382 12.4351 32.8716 12.6631V12.6777V12.6941C32.877 12.7296 32.8816 12.765 32.8861 12.7995C32.8942 12.8608 32.9024 12.9213 32.9096 12.9817C32.9277 13.1216 32.944 13.2624 32.9602 13.4023C33.0326 14.0499 33.0868 14.6976 33.1275 15.3487C33.2342 16.921 33.2635 18.4938 33.2152 20.0672C33.1764 21.4264 33.0914 22.7874 32.9232 24.1371C32.9132 24.2105 32.9042 24.283 32.8942 24.3564C32.8942 24.3763 32.8807 24.4557 32.8779 24.4791C32.8617 24.5922 32.8445 24.7062 32.8264 24.8193C32.8023 24.9713 32.7755 25.1227 32.7459 25.2735C32.7134 25.1267 32.6832 24.9793 32.6555 24.8314C32.6085 24.5836 32.5651 24.3357 32.5289 24.0861L32.4963 23.8616C32.4963 23.8616 32.4963 23.8513 32.4963 23.8444C32.4909 23.8081 32.4864 23.7718 32.481 23.7355C32.4611 23.5859 32.4421 23.4365 32.424 23.2874C32.3438 22.6109 32.2835 21.9327 32.2431 21.2528C32.141 19.6755 32.1283 18.094 32.2052 16.5154Z" fill="#FF7F41"/>
<path d="M26.5309 33.2344C24.3429 33.2344 22.5691 26.6367 22.5691 18.4971C22.5691 10.3575 24.3429 3.76068 26.5309 3.76068C28.7188 3.76068 29.9375 10.3584 29.9375 18.4971C29.9375 26.6358 28.7147 33.2344 26.5309 33.2344Z" fill="#EBEBEB"/>
<path d="M147.288 27.037C147.288 27.2824 147.24 27.5117 147.144 27.725C147.059 27.9277 146.942 28.109 146.792 28.269C146.643 28.4184 146.462 28.5357 146.248 28.621C146.046 28.7064 145.827 28.749 145.592 28.749C145.358 28.749 145.128 28.7064 144.904 28.621C144.691 28.5357 144.504 28.4184 144.344 28.269C144.184 28.109 144.056 27.9277 143.96 27.725C143.864 27.5117 143.816 27.2824 143.816 27.037V21.085C143.816 20.9997 143.822 20.9357 143.832 20.893C143.811 20.3704 143.704 19.8797 143.512 19.421C143.32 18.9624 143.059 18.5624 142.728 18.221C142.398 17.8797 142.008 17.613 141.56 17.421C141.123 17.2184 140.638 17.117 140.104 17.117C139.56 17.117 139.059 17.2184 138.6 17.421C138.142 17.613 137.747 17.885 137.416 18.237C137.096 18.589 136.84 19.005 136.648 19.485C136.467 19.9544 136.376 20.461 136.376 21.005V27.037C136.376 27.2824 136.334 27.5117 136.248 27.725C136.163 27.9277 136.04 28.109 135.88 28.269C135.731 28.4184 135.555 28.5357 135.352 28.621C135.15 28.7064 134.926 28.749 134.68 28.749C134.446 28.749 134.222 28.7064 134.008 28.621C133.795 28.5357 133.603 28.4184 133.432 28.269C133.272 28.109 133.144 27.9277 133.048 27.725C132.952 27.5117 132.904 27.2824 132.904 27.037V21.005C132.904 19.981 133.086 19.0264 133.448 18.141C133.822 17.245 134.328 16.4664 134.968 15.805C135.619 15.133 136.382 14.605 137.256 14.221C138.142 13.837 139.091 13.645 140.104 13.645C141.128 13.645 142.078 13.837 142.952 14.221C143.827 14.605 144.584 15.133 145.224 15.805C145.864 16.4664 146.366 17.245 146.728 18.141C147.102 19.0264 147.288 19.981 147.288 21.005V27.037Z" fill="white"/>
<path d="M119.384 21.277C119.384 21.8424 119.491 22.381 119.704 22.893C119.928 23.3944 120.227 23.837 120.6 24.221C120.984 24.5944 121.427 24.893 121.928 25.117C122.429 25.3304 122.968 25.437 123.544 25.437C124.12 25.437 124.659 25.3304 125.16 25.117C125.672 24.893 126.115 24.5944 126.488 24.221C126.861 23.837 127.155 23.3944 127.368 22.893C127.581 22.381 127.688 21.8424 127.688 21.277C127.688 20.701 127.581 20.1624 127.368 19.661C127.155 19.149 126.861 18.7064 126.488 18.333C126.115 17.9597 125.672 17.6664 125.16 17.453C124.659 17.229 124.12 17.117 123.544 17.117C122.979 17.117 122.44 17.229 121.928 17.453C121.427 17.6664 120.984 17.9597 120.6 18.333C120.227 18.7064 119.928 19.149 119.704 19.661C119.491 20.1624 119.384 20.701 119.384 21.277ZM115.912 21.277C115.912 20.221 116.115 19.2344 116.52 18.317C116.925 17.389 117.475 16.5784 118.168 15.885C118.861 15.1917 119.667 14.6477 120.584 14.253C121.512 13.8477 122.499 13.645 123.544 13.645C124.6 13.645 125.592 13.8477 126.52 14.253C127.448 14.6477 128.253 15.1917 128.936 15.885C129.629 16.5784 130.173 17.389 130.568 18.317C130.963 19.2344 131.16 20.221 131.16 21.277C131.16 22.3224 130.963 23.309 130.568 24.237C130.173 25.165 129.629 25.9757 128.936 26.669C128.253 27.3624 127.448 27.9117 126.52 28.317C125.592 28.7117 124.6 28.909 123.544 28.909C122.499 28.909 121.512 28.7117 120.584 28.317C119.667 27.9117 118.861 27.3624 118.168 26.669C117.475 25.9757 116.925 25.165 116.52 24.237C116.115 23.309 115.912 22.3224 115.912 21.277Z" fill="white"/>
<path d="M99.5859 9.89833C99.5859 9.64233 99.6286 9.40767 99.7139 9.19433C99.8099 8.97033 99.9326 8.77833 100.082 8.61833C100.242 8.44766 100.429 8.31966 100.642 8.23433C100.855 8.13833 101.085 8.09033 101.33 8.09033C101.586 8.09033 101.815 8.13833 102.018 8.23433C102.231 8.31966 102.413 8.44766 102.562 8.61833C102.722 8.77833 102.845 8.97033 102.93 9.19433C103.015 9.40767 103.058 9.64233 103.058 9.89833V14.8903C103.666 14.4957 104.317 14.1917 105.01 13.9783C105.714 13.7543 106.45 13.6423 107.218 13.6423C108.274 13.6423 109.261 13.845 110.178 14.2503C111.106 14.645 111.911 15.189 112.594 15.8823C113.287 16.565 113.831 17.3703 114.226 18.2983C114.631 19.2263 114.834 20.2183 114.834 21.2743C114.834 22.3197 114.631 23.3063 114.226 24.2343C113.831 25.1623 113.287 25.973 112.594 26.6663C111.911 27.3597 111.106 27.909 110.178 28.3143C109.261 28.709 108.274 28.9063 107.218 28.9063C106.173 28.9063 105.186 28.709 104.258 28.3143C103.33 27.909 102.519 27.3597 101.826 26.6663C101.133 25.973 100.583 25.1623 100.178 24.2343C99.7833 23.3063 99.5859 22.3197 99.5859 21.2743V9.89833ZM103.058 21.2743C103.058 21.8397 103.165 22.3783 103.378 22.8903C103.602 23.3917 103.901 23.8343 104.274 24.2183C104.658 24.5917 105.101 24.8903 105.602 25.1143C106.103 25.3277 106.642 25.4343 107.218 25.4343C107.794 25.4343 108.333 25.3277 108.834 25.1143C109.335 24.8903 109.773 24.5917 110.146 24.2183C110.53 23.8343 110.829 23.3917 111.042 22.8903C111.255 22.3783 111.362 21.8397 111.362 21.2743C111.362 20.6983 111.255 20.1597 111.042 19.6583C110.829 19.1463 110.53 18.7037 110.146 18.3303C109.773 17.957 109.335 17.6637 108.834 17.4503C108.333 17.2263 107.794 17.1143 107.218 17.1143C106.642 17.1143 106.103 17.2263 105.602 17.4503C105.101 17.6637 104.658 17.957 104.274 18.3303C103.901 18.7037 103.602 19.1463 103.378 19.6583C103.165 20.1597 103.058 20.6983 103.058 21.2743Z" fill="white"/>
<path d="M86.0497 22.829C86.1884 23.2237 86.3804 23.5864 86.6257 23.917C86.8817 24.237 87.1751 24.5144 87.5057 24.749C87.8364 24.973 88.1991 25.149 88.5937 25.277C88.9884 25.3944 89.4044 25.453 89.8417 25.453C90.9404 25.453 91.8044 25.165 92.4337 24.589C92.6471 24.4397 92.8551 24.333 93.0577 24.269C93.2604 24.1944 93.4524 24.157 93.6337 24.157C93.9324 24.157 94.1991 24.237 94.4337 24.397C94.6684 24.5464 94.8604 24.7437 95.0097 24.989C95.1164 25.1597 95.1911 25.3464 95.2337 25.549C95.2871 25.741 95.2977 25.9384 95.2657 26.141C95.2444 26.3437 95.1804 26.5464 95.0737 26.749C94.9777 26.941 94.8284 27.117 94.6257 27.277C94.3911 27.4904 94.1244 27.6984 93.8257 27.901C93.5271 28.093 93.1804 28.2637 92.7857 28.413C92.4017 28.5624 91.9644 28.6797 91.4737 28.765C90.9937 28.861 90.4497 28.909 89.8417 28.909C88.7857 28.909 87.7937 28.7117 86.8657 28.317C85.9377 27.9117 85.1271 27.3624 84.4337 26.669C83.7404 25.9757 83.1911 25.1704 82.7857 24.253C82.3804 23.325 82.1777 22.333 82.1777 21.277C82.1777 20.221 82.3804 19.229 82.7857 18.301C83.1911 17.373 83.7404 16.5677 84.4337 15.885C85.1271 15.1917 85.9377 14.6477 86.8657 14.253C87.7937 13.8477 88.7857 13.645 89.8417 13.645C90.8871 13.645 91.8684 13.8424 92.7857 14.237C93.7137 14.6317 94.5244 15.1704 95.2177 15.853C95.9217 16.525 96.4764 17.3197 96.8817 18.237C97.2977 19.1544 97.5111 20.1357 97.5217 21.181C97.5217 21.6717 97.3617 22.0717 97.0417 22.381C96.7324 22.6797 96.3217 22.829 95.8097 22.829H86.0497ZM93.9537 19.949C93.8364 19.5117 93.6497 19.117 93.3937 18.765C93.1484 18.413 92.8497 18.1144 92.4977 17.869C92.1457 17.6237 91.7511 17.437 91.3137 17.309C90.8764 17.181 90.4124 17.117 89.9217 17.117C89.4311 17.117 88.9671 17.1864 88.5297 17.325C88.1031 17.453 87.7137 17.645 87.3617 17.901C87.0204 18.1464 86.7271 18.445 86.4817 18.797C86.2364 19.1384 86.0551 19.5224 85.9377 19.949H93.9537Z" fill="white"/>
<path d="M79.5187 25.2423C79.764 25.2423 79.9933 25.2903 80.2067 25.3863C80.42 25.4823 80.6013 25.6157 80.7507 25.7863C80.9 25.9463 81.0173 26.133 81.1027 26.3463C81.188 26.5597 81.2307 26.7837 81.2307 27.0183C81.2307 27.509 81.0707 27.9143 80.7507 28.2343C80.4307 28.5543 80.02 28.7143 79.5187 28.7143C78.7933 28.7143 78.1107 28.5917 77.4707 28.3463C76.8413 28.101 76.2867 27.7597 75.8067 27.3223C75.3267 26.885 74.948 26.357 74.6707 25.7383C74.3933 25.1197 74.244 24.437 74.2227 23.6903V9.83433C74.2227 9.589 74.2653 9.35966 74.3507 9.14633C74.4467 8.933 74.5693 8.75167 74.7187 8.60233C74.868 8.44233 75.044 8.31966 75.2467 8.23433C75.4493 8.13833 75.668 8.09033 75.9027 8.09033C76.148 8.09033 76.3773 8.13833 76.5907 8.23433C76.804 8.31966 76.9907 8.44233 77.1507 8.60233C77.3213 8.75167 77.4547 8.933 77.5507 9.14633C77.6467 9.35966 77.6947 9.589 77.6947 9.83433V23.5783C77.6947 24.133 77.8653 24.549 78.2067 24.8263C78.548 25.1037 78.9853 25.2423 79.5187 25.2423Z" fill="white"/>
<path d="M60.7841 22.829C60.9228 23.2237 61.1148 23.5864 61.3601 23.917C61.6161 24.237 61.9094 24.5144 62.2401 24.749C62.5708 24.973 62.9334 25.149 63.3281 25.277C63.7228 25.3944 64.1388 25.453 64.5761 25.453C65.6748 25.453 66.5388 25.165 67.1681 24.589C67.3814 24.4397 67.5894 24.333 67.7921 24.269C67.9948 24.1944 68.1868 24.157 68.3681 24.157C68.6668 24.157 68.9334 24.237 69.1681 24.397C69.4028 24.5464 69.5948 24.7437 69.7441 24.989C69.8508 25.1597 69.9254 25.3464 69.9681 25.549C70.0214 25.741 70.0321 25.9384 70.0001 26.141C69.9788 26.3437 69.9148 26.5464 69.8081 26.749C69.7121 26.941 69.5628 27.117 69.3601 27.277C69.1254 27.4904 68.8588 27.6984 68.5601 27.901C68.2614 28.093 67.9148 28.2637 67.5201 28.413C67.1361 28.5624 66.6988 28.6797 66.2081 28.765C65.7281 28.861 65.1841 28.909 64.5761 28.909C63.5201 28.909 62.5281 28.7117 61.6001 28.317C60.6721 27.9117 59.8614 27.3624 59.1681 26.669C58.4748 25.9757 57.9254 25.1704 57.5201 24.253C57.1148 23.325 56.9121 22.333 56.9121 21.277C56.9121 20.221 57.1148 19.229 57.5201 18.301C57.9254 17.373 58.4748 16.5677 59.1681 15.885C59.8614 15.1917 60.6721 14.6477 61.6001 14.253C62.5281 13.8477 63.5201 13.645 64.5761 13.645C65.6214 13.645 66.6028 13.8424 67.5201 14.237C68.4481 14.6317 69.2588 15.1704 69.9521 15.853C70.6561 16.525 71.2108 17.3197 71.6161 18.237C72.0321 19.1544 72.2454 20.1357 72.2561 21.181C72.2561 21.6717 72.0961 22.0717 71.7761 22.381C71.4668 22.6797 71.0561 22.829 70.5441 22.829H60.7841ZM68.6881 19.949C68.5708 19.5117 68.3841 19.117 68.1281 18.765C67.8828 18.413 67.5841 18.1144 67.2321 17.869C66.8801 17.6237 66.4854 17.437 66.0481 17.309C65.6108 17.181 65.1468 17.117 64.6561 17.117C64.1654 17.117 63.7014 17.1864 63.2641 17.325C62.8374 17.453 62.4481 17.645 62.0961 17.901C61.7548 18.1464 61.4614 18.445 61.2161 18.797C60.9708 19.1384 60.7894 19.5224 60.6721 19.949H68.6881Z" fill="white"/>
<path d="M46.472 13.8375H52.04C52.2853 13.8375 52.5147 13.8855 52.728 13.9815C52.9413 14.0668 53.128 14.1895 53.288 14.3495C53.448 14.5095 53.5707 14.6961 53.656 14.9095C53.752 15.1228 53.8 15.3521 53.8 15.5975C53.8 15.8321 53.752 16.0561 53.656 16.2695C53.5707 16.4721 53.448 16.6535 53.288 16.8135C53.128 16.9628 52.9413 17.0855 52.728 17.1815C52.5147 17.2668 52.2853 17.3095 52.04 17.3095H46.472V21.3575C46.472 21.9228 46.5787 22.4561 46.792 22.9575C47.016 23.4481 47.3147 23.8801 47.688 24.2535C48.0613 24.6161 48.4987 24.9041 49 25.1175C49.512 25.3308 50.056 25.4375 50.632 25.4375C51.144 25.4375 51.6187 25.3681 52.056 25.2295C52.4933 25.0801 52.8987 24.8401 53.272 24.5095C53.4533 24.3388 53.656 24.2001 53.88 24.0935C54.104 23.9761 54.3387 23.9175 54.584 23.9175C54.9787 23.9175 55.336 24.0615 55.656 24.3495C55.848 24.5201 55.9813 24.7228 56.056 24.9575C56.1413 25.1921 56.1733 25.4375 56.152 25.6935C56.1413 25.9388 56.0827 26.1788 55.976 26.4135C55.8693 26.6481 55.72 26.8561 55.528 27.0375C54.888 27.6561 54.152 28.1255 53.32 28.4455C52.488 28.7548 51.592 28.9095 50.632 28.9095C49.576 28.9095 48.584 28.7121 47.656 28.3175C46.7387 27.9228 45.9333 27.3841 45.24 26.7015C44.5467 26.0188 43.9973 25.2188 43.592 24.3015C43.1973 23.3735 43 22.3815 43 21.3255V11.0535C43 10.8081 43.048 10.5788 43.144 10.3655C43.24 10.1521 43.368 9.96546 43.528 9.80546C43.688 9.64546 43.8747 9.52279 44.088 9.43746C44.3013 9.34146 44.5253 9.29346 44.76 9.29346C44.9947 9.29346 45.2133 9.34146 45.416 9.43746C45.6293 9.52279 45.8107 9.64546 45.96 9.80546C46.12 9.96546 46.2427 10.1521 46.328 10.3655C46.424 10.5788 46.472 10.8081 46.472 11.0535V13.8375Z" fill="white"/>
</svg>
