<svg width="153" height="39" viewBox="0 0 153 39" fill="none" xmlns="http://www.w3.org/2000/svg">
<path opacity="0.8" d="M13.8789 38C6.22176 38 0.0140384 31.515 0.0140384 23.515C0.0140384 15.5151 6.22107 9.03082 13.8789 9.03082" fill="#246BFD"/>
<path d="M14.0424 38C12.111 38 9.83552 31.7938 9.83552 23.7939C9.83552 15.794 12.111 9.03082 14.0424 9.03082C15.9737 9.03082 17.1328 15.5159 17.1328 23.515C17.1328 31.5142 15.9737 38 14.0424 38Z" fill="#246BFD"/>
<path d="M24.8369 24.9403C24.8756 26.1203 24.9823 27.297 25.1564 28.4648C25.2138 28.8379 25.2782 29.211 25.3714 29.5777C25.4244 29.7921 25.4824 30.0322 25.6035 30.2209C25.6541 30.3046 25.7291 30.3709 25.8184 30.4111C25.8623 30.4311 25.9099 30.4414 25.9581 30.4414C26.0063 30.4414 26.054 30.4311 26.0978 30.4111C26.2898 30.3339 26.3801 30.118 26.4424 29.9207C26.5258 29.6347 26.5886 29.343 26.6302 29.048C26.7925 27.9867 26.8963 26.9172 26.9411 25.8445C27.0123 24.4698 27.0189 23.0936 26.9612 21.7161C26.9218 20.5966 26.8249 19.4799 26.671 18.3703C26.6269 18.0352 26.564 17.7027 26.4826 17.3746C26.4274 17.1659 26.3579 16.895 26.1587 16.7757C25.9001 16.6199 25.6572 16.8114 25.5483 17.0451C25.4391 17.3062 25.3582 17.5782 25.3069 17.8564C25.0977 18.8349 24.9917 19.8398 24.915 20.8369C24.8108 22.2021 24.7847 23.5721 24.8369 24.9403ZM25.5161 21.8733C25.5433 21.2853 25.5858 20.6982 25.6436 20.1121C25.6694 19.8555 25.6981 19.5997 25.731 19.3445C25.731 19.3116 25.7389 19.2795 25.7432 19.2466C25.7432 19.238 25.7432 19.2316 25.7432 19.2266C25.7432 19.2216 25.7432 19.2151 25.7432 19.2073L25.7647 19.0522C25.7805 18.9435 25.7969 18.8356 25.8141 18.7284C25.8514 18.4975 25.8922 18.2666 25.9417 18.0379L25.9567 18.1216C25.9897 18.3081 26.0176 18.4961 26.0441 18.6848V18.6969V18.7105C26.0484 18.7398 26.052 18.7691 26.0556 18.7977C26.062 18.8485 26.0685 18.8985 26.0742 18.9485C26.0885 19.0643 26.1014 19.1808 26.1143 19.2966C26.1716 19.8327 26.2146 20.3687 26.2469 20.9077C26.3314 22.209 26.3546 23.5108 26.3164 24.8131C26.2855 25.9381 26.2182 27.0646 26.0849 28.1817C26.0771 28.2425 26.0699 28.3025 26.062 28.3633C26.062 28.3797 26.0513 28.4455 26.0491 28.4648C26.0362 28.5584 26.0226 28.6528 26.0083 28.7464C25.9892 28.8722 25.9679 28.9975 25.9445 29.1224C25.9187 29.0008 25.8948 28.8789 25.8729 28.7564C25.8356 28.5513 25.8012 28.3461 25.7726 28.1396L25.7468 27.9537C25.7468 27.9537 25.7468 27.9452 25.7468 27.9394C25.7425 27.9094 25.7389 27.8794 25.7346 27.8494C25.7188 27.7255 25.7038 27.6018 25.6895 27.4784C25.6259 26.9185 25.5782 26.3572 25.5462 25.7945C25.4652 24.4889 25.4552 23.1799 25.5161 21.8733Z" fill="#FF7F41"/>
<path d="M21.0168 35.7129C19.2834 35.7129 17.878 30.2521 17.878 23.515C17.878 16.7779 19.2834 11.3178 21.0168 11.3178C22.7503 11.3178 23.7158 16.7786 23.7158 23.515C23.7158 30.2513 22.747 35.7129 21.0168 35.7129Z" fill="#246BFD"/>
<path d="M39.568 21.464V27.896C39.568 28.344 39.672 28.672 39.88 28.88C40.104 29.072 40.472 29.168 40.984 29.168H42.544V32H40.432C37.6 32 36.184 30.624 36.184 27.872V21.464H34.6V18.704H36.184V15.416H39.568V18.704H42.544V21.464H39.568ZM57.3207 25.064C57.3207 25.544 57.2887 25.976 57.2247 26.36H47.5047C47.5847 27.32 47.9207 28.072 48.5127 28.616C49.1047 29.16 49.8327 29.432 50.6967 29.432C51.9447 29.432 52.8327 28.896 53.3607 27.824H56.9847C56.6007 29.104 55.8647 30.16 54.7767 30.992C53.6887 31.808 52.3527 32.216 50.7687 32.216C49.4887 32.216 48.3367 31.936 47.3127 31.376C46.3047 30.8 45.5127 29.992 44.9367 28.952C44.3767 27.912 44.0967 26.712 44.0967 25.352C44.0967 23.976 44.3767 22.768 44.9367 21.728C45.4967 20.688 46.2807 19.888 47.2887 19.328C48.2967 18.768 49.4567 18.488 50.7687 18.488C52.0327 18.488 53.1607 18.76 54.1527 19.304C55.1607 19.848 55.9367 20.624 56.4807 21.632C57.0407 22.624 57.3207 23.768 57.3207 25.064ZM53.8407 24.104C53.8247 23.24 53.5127 22.552 52.9047 22.04C52.2967 21.512 51.5527 21.248 50.6727 21.248C49.8407 21.248 49.1367 21.504 48.5607 22.016C48.0007 22.512 47.6567 23.208 47.5287 24.104H53.8407ZM63.1332 14.24V32H59.7732V14.24H63.1332ZM78.8129 25.064C78.8129 25.544 78.7809 25.976 78.7169 26.36H68.9969C69.0769 27.32 69.4129 28.072 70.0049 28.616C70.5969 29.16 71.3249 29.432 72.1889 29.432C73.4369 29.432 74.3249 28.896 74.8529 27.824H78.4769C78.0929 29.104 77.3569 30.16 76.2689 30.992C75.1809 31.808 73.8449 32.216 72.2609 32.216C70.9809 32.216 69.8289 31.936 68.8049 31.376C67.7969 30.8 67.0049 29.992 66.4289 28.952C65.8689 27.912 65.5889 26.712 65.5889 25.352C65.5889 23.976 65.8689 22.768 66.4289 21.728C66.9889 20.688 67.7729 19.888 68.7809 19.328C69.7889 18.768 70.9489 18.488 72.2609 18.488C73.5249 18.488 74.6529 18.76 75.6449 19.304C76.6529 19.848 77.4289 20.624 77.9729 21.632C78.5329 22.624 78.8129 23.768 78.8129 25.064ZM75.3329 24.104C75.3169 23.24 75.0049 22.552 74.3969 22.04C73.7889 21.512 73.0449 21.248 72.1649 21.248C71.3329 21.248 70.6289 21.504 70.0529 22.016C69.4929 22.512 69.1489 23.208 69.0209 24.104H75.3329ZM84.6254 20.648C85.0574 20.008 85.6494 19.488 86.4014 19.088C87.1694 18.688 88.0414 18.488 89.0174 18.488C90.1534 18.488 91.1774 18.768 92.0894 19.328C93.0174 19.888 93.7454 20.688 94.2734 21.728C94.8174 22.752 95.0894 23.944 95.0894 25.304C95.0894 26.664 94.8174 27.872 94.2734 28.928C93.7454 29.968 93.0174 30.776 92.0894 31.352C91.1774 31.928 90.1534 32.216 89.0174 32.216C88.0254 32.216 87.1534 32.024 86.4014 31.64C85.6654 31.24 85.0734 30.728 84.6254 30.104V32H81.2654V14.24H84.6254V20.648ZM91.6574 25.304C91.6574 24.504 91.4894 23.816 91.1534 23.24C90.8334 22.648 90.4014 22.2 89.8574 21.896C89.3294 21.592 88.7534 21.44 88.1294 21.44C87.5214 21.44 86.9454 21.6 86.4014 21.92C85.8734 22.224 85.4414 22.672 85.1054 23.264C84.7854 23.856 84.6254 24.552 84.6254 25.352C84.6254 26.152 84.7854 26.848 85.1054 27.44C85.4414 28.032 85.8734 28.488 86.4014 28.808C86.9454 29.112 87.5214 29.264 88.1294 29.264C88.7534 29.264 89.3294 29.104 89.8574 28.784C90.4014 28.464 90.8334 28.008 91.1534 27.416C91.4894 26.824 91.6574 26.12 91.6574 25.304ZM103.435 32.216C102.155 32.216 101.003 31.936 99.979 31.376C98.955 30.8 98.147 29.992 97.555 28.952C96.979 27.912 96.691 26.712 96.691 25.352C96.691 23.992 96.987 22.792 97.579 21.752C98.187 20.712 99.011 19.912 100.051 19.352C101.091 18.776 102.251 18.488 103.531 18.488C104.811 18.488 105.971 18.776 107.011 19.352C108.051 19.912 108.867 20.712 109.459 21.752C110.067 22.792 110.371 23.992 110.371 25.352C110.371 26.712 110.059 27.912 109.435 28.952C108.827 29.992 107.995 30.8 106.939 31.376C105.899 31.936 104.731 32.216 103.435 32.216ZM103.435 29.288C104.043 29.288 104.611 29.144 105.139 28.856C105.683 28.552 106.115 28.104 106.435 27.512C106.755 26.92 106.915 26.2 106.915 25.352C106.915 24.088 106.579 23.12 105.907 22.448C105.251 21.76 104.443 21.416 103.483 21.416C102.523 21.416 101.715 21.76 101.059 22.448C100.419 23.12 100.099 24.088 100.099 25.352C100.099 26.616 100.411 27.592 101.035 28.28C101.675 28.952 102.475 29.288 103.435 29.288ZM120.204 18.512C121.788 18.512 123.068 19.016 124.044 20.024C125.02 21.016 125.508 22.408 125.508 24.2V32H122.148V24.656C122.148 23.6 121.884 22.792 121.356 22.232C120.828 21.656 120.108 21.368 119.196 21.368C118.268 21.368 117.532 21.656 116.988 22.232C116.46 22.792 116.196 23.6 116.196 24.656V32H112.836V18.704H116.196V20.36C116.644 19.784 117.212 19.336 117.9 19.016C118.604 18.68 119.372 18.512 120.204 18.512Z" fill="#333333"/>
<path d="M119 8C119 3.58173 122.582 0 127 0H145C149.418 0 153 3.65865 153 8.07692V8.07692C153 12.4952 149.418 16.1538 145 16.1538H119V8Z" fill="#FF7F41"/>
<path d="M127.728 8.62012H125.735L125.724 7.63721H127.464C127.758 7.63721 128.007 7.59424 128.211 7.5083C128.419 7.41878 128.576 7.29167 128.684 7.12695C128.791 6.95866 128.845 6.75635 128.845 6.52002C128.845 6.25863 128.795 6.04557 128.694 5.88086C128.594 5.71615 128.44 5.59619 128.232 5.521C128.028 5.4458 127.767 5.4082 127.448 5.4082H126.143V12.1543H124.795V4.33398H127.448C127.878 4.33398 128.261 4.37516 128.598 4.45752C128.938 4.53988 129.226 4.66878 129.462 4.84424C129.702 5.01611 129.883 5.23454 130.005 5.49951C130.13 5.76449 130.193 6.07959 130.193 6.44482C130.193 6.76709 130.116 7.0625 129.962 7.33105C129.808 7.59603 129.581 7.81266 129.28 7.98096C128.979 8.14925 128.605 8.24951 128.157 8.28174L127.728 8.62012ZM127.668 12.1543H125.311L125.917 11.0854H127.668C127.973 11.0854 128.227 11.0353 128.431 10.9351C128.635 10.8312 128.787 10.6898 128.888 10.5107C128.992 10.3281 129.043 10.1151 129.043 9.87158C129.043 9.61735 128.999 9.39714 128.909 9.21094C128.82 9.02116 128.678 8.87614 128.485 8.77588C128.292 8.67204 128.039 8.62012 127.728 8.62012H126.213L126.224 7.63721H128.195L128.501 8.00781C128.931 8.02214 129.283 8.11702 129.559 8.29248C129.838 8.46794 130.046 8.69531 130.182 8.97461C130.318 9.25391 130.386 9.55469 130.386 9.87695C130.386 10.3747 130.277 10.7918 130.059 11.1284C129.844 11.465 129.534 11.721 129.129 11.8965C128.725 12.0684 128.238 12.1543 127.668 12.1543ZM134.178 12.2617C133.749 12.2617 133.36 12.1919 133.013 12.0522C132.669 11.909 132.375 11.7103 132.132 11.4561C131.892 11.2018 131.708 10.9028 131.579 10.5591C131.45 10.2153 131.385 9.84473 131.385 9.44727V9.23242C131.385 8.77767 131.451 8.36589 131.584 7.99707C131.716 7.62826 131.901 7.31315 132.137 7.05176C132.374 6.78678 132.653 6.58447 132.975 6.44482C133.297 6.30518 133.646 6.23535 134.022 6.23535C134.438 6.23535 134.801 6.30518 135.113 6.44482C135.424 6.58447 135.682 6.78141 135.886 7.03564C136.094 7.2863 136.248 7.58529 136.348 7.93262C136.452 8.27995 136.504 8.66309 136.504 9.08203V9.63525H132.014V8.70605H135.226V8.604C135.218 8.37126 135.172 8.15283 135.086 7.94873C135.004 7.74463 134.876 7.57992 134.705 7.45459C134.533 7.32926 134.304 7.2666 134.017 7.2666C133.802 7.2666 133.611 7.31315 133.442 7.40625C133.278 7.49577 133.14 7.62646 133.029 7.79834C132.918 7.97021 132.832 8.1779 132.771 8.42139C132.714 8.6613 132.685 8.93164 132.685 9.23242V9.44727C132.685 9.7015 132.719 9.93783 132.787 10.1562C132.859 10.3711 132.963 10.5591 133.099 10.7202C133.235 10.8813 133.399 11.0085 133.593 11.1016C133.786 11.1911 134.006 11.2358 134.253 11.2358C134.565 11.2358 134.842 11.1732 135.086 11.0479C135.329 10.9225 135.541 10.7453 135.72 10.5161L136.402 11.1768C136.277 11.3594 136.114 11.5348 135.913 11.7031C135.713 11.8678 135.467 12.0021 135.177 12.106C134.891 12.2098 134.558 12.2617 134.178 12.2617ZM140.178 6.34277V7.28809H136.901V6.34277H140.178ZM137.847 4.91943H139.141V10.5483C139.141 10.7274 139.166 10.8652 139.216 10.9619C139.27 11.055 139.343 11.1177 139.437 11.1499C139.53 11.1821 139.639 11.1982 139.764 11.1982C139.854 11.1982 139.94 11.1929 140.022 11.1821C140.104 11.1714 140.171 11.1606 140.221 11.1499L140.226 12.1382C140.119 12.1704 139.993 12.1991 139.85 12.2241C139.71 12.2492 139.549 12.2617 139.367 12.2617C139.069 12.2617 138.806 12.2098 138.577 12.106C138.348 11.9985 138.169 11.8249 138.04 11.585C137.911 11.3451 137.847 11.0264 137.847 10.6289V4.91943ZM144.453 10.9888V8.21729C144.453 8.0096 144.416 7.83057 144.34 7.68018C144.265 7.52979 144.151 7.41341 143.997 7.33105C143.846 7.2487 143.656 7.20752 143.427 7.20752C143.216 7.20752 143.033 7.24333 142.879 7.31494C142.725 7.38656 142.605 7.48324 142.52 7.60498C142.434 7.72673 142.391 7.86458 142.391 8.01855H141.102C141.102 7.78939 141.157 7.56738 141.268 7.35254C141.379 7.1377 141.54 6.94613 141.751 6.77783C141.963 6.60954 142.215 6.47705 142.509 6.38037C142.802 6.28369 143.132 6.23535 143.497 6.23535C143.934 6.23535 144.321 6.30876 144.657 6.45557C144.997 6.60238 145.264 6.82438 145.458 7.12158C145.654 7.4152 145.753 7.78402 145.753 8.22803V10.8115C145.753 11.0765 145.771 11.3146 145.807 11.5259C145.846 11.7336 145.902 11.9144 145.973 12.0684V12.1543H144.646C144.586 12.0146 144.537 11.8374 144.501 11.6226C144.469 11.4041 144.453 11.1929 144.453 10.9888ZM144.641 8.62012L144.652 9.42041H143.723C143.483 9.42041 143.271 9.44368 143.089 9.49023C142.906 9.5332 142.754 9.59766 142.632 9.68359C142.511 9.76953 142.419 9.87337 142.358 9.99512C142.298 10.1169 142.267 10.2547 142.267 10.4087C142.267 10.5627 142.303 10.7041 142.375 10.833C142.446 10.9583 142.55 11.0568 142.686 11.1284C142.826 11.2 142.994 11.2358 143.191 11.2358C143.456 11.2358 143.687 11.1821 143.884 11.0747C144.084 10.9637 144.242 10.8294 144.356 10.6719C144.471 10.5107 144.532 10.3586 144.539 10.2153L144.958 10.79C144.915 10.9368 144.842 11.0944 144.738 11.2627C144.634 11.431 144.498 11.5921 144.33 11.7461C144.165 11.8965 143.966 12.02 143.733 12.1167C143.504 12.2134 143.239 12.2617 142.938 12.2617C142.559 12.2617 142.221 12.1865 141.923 12.0361C141.626 11.8822 141.393 11.6763 141.225 11.4185C141.057 11.1571 140.973 10.8617 140.973 10.5322C140.973 10.2243 141.03 9.95215 141.145 9.71582C141.263 9.47591 141.435 9.27539 141.66 9.11426C141.889 8.95312 142.169 8.83138 142.498 8.74902C142.827 8.66309 143.203 8.62012 143.626 8.62012H144.641Z" fill="white"/>
</svg>
