<svg width="198" height="41" viewBox="0 0 198 41" fill="none" xmlns="http://www.w3.org/2000/svg">
<path d="M70.0145 6V11.28H62.4545V34H56.9345V11.28H49.4145V6H70.0145ZM73.5833 26.12C74.2766 28.6267 76.1566 29.88 79.2233 29.88C81.1966 29.88 82.6899 29.2133 83.7033 27.88L87.8633 30.28C85.8899 33.1333 82.9833 34.56 79.1433 34.56C75.8366 34.56 73.1833 33.56 71.1833 31.56C69.1833 29.56 68.1833 27.04 68.1833 24C68.1833 20.9867 69.1699 18.48 71.1433 16.48C73.1166 14.4533 75.6499 13.44 78.7433 13.44C81.6766 13.44 84.0899 14.4533 85.9833 16.48C87.9033 18.5067 88.8633 21.0133 88.8633 24C88.8633 24.6667 88.7966 25.3733 88.6633 26.12H73.5833ZM73.5033 22.12H83.7033C83.4099 20.76 82.7966 19.7467 81.8633 19.08C80.9566 18.4133 79.9166 18.08 78.7433 18.08C77.3566 18.08 76.2099 18.44 75.3033 19.16C74.3966 19.8533 73.7966 20.84 73.5033 22.12ZM92.4655 34V4.8H97.6255V34H92.4655ZM106.708 26.12C107.402 28.6267 109.282 29.88 112.348 29.88C114.322 29.88 115.815 29.2133 116.828 27.88L120.988 30.28C119.015 33.1333 116.108 34.56 112.268 34.56C108.962 34.56 106.308 33.56 104.308 31.56C102.308 29.56 101.308 27.04 101.308 24C101.308 20.9867 102.295 18.48 104.268 16.48C106.242 14.4533 108.775 13.44 111.868 13.44C114.802 13.44 117.215 14.4533 119.108 16.48C121.028 18.5067 121.988 21.0133 121.988 24C121.988 24.6667 121.922 25.3733 121.788 26.12H106.708ZM106.628 22.12H116.828C116.535 20.76 115.922 19.7467 114.988 19.08C114.082 18.4133 113.042 18.08 111.868 18.08C110.482 18.08 109.335 18.44 108.428 19.16C107.522 19.8533 106.922 20.84 106.628 22.12ZM137.23 13.44C139.924 13.44 142.217 14.4667 144.11 16.52C146.03 18.5467 146.99 21.04 146.99 24C146.99 26.96 146.03 29.4667 144.11 31.52C142.217 33.5467 139.924 34.56 137.23 34.56C134.43 34.56 132.27 33.5867 130.75 31.64V34H125.59V6H130.75V16.36C132.27 14.4133 134.43 13.44 137.23 13.44ZM132.31 28.08C133.35 29.12 134.67 29.64 136.27 29.64C137.87 29.64 139.19 29.12 140.23 28.08C141.297 27.0133 141.83 25.6533 141.83 24C141.83 22.3467 141.297 21 140.23 19.96C139.19 18.8933 137.87 18.36 136.27 18.36C134.67 18.36 133.35 18.8933 132.31 19.96C131.27 21 130.75 22.3467 130.75 24C130.75 25.6533 131.27 27.0133 132.31 28.08ZM167.67 31.52C165.616 33.5467 163.11 34.56 160.15 34.56C157.19 34.56 154.683 33.5467 152.63 31.52C150.603 29.4667 149.59 26.96 149.59 24C149.59 21.04 150.603 18.5467 152.63 16.52C154.683 14.4667 157.19 13.44 160.15 13.44C163.11 13.44 165.616 14.4667 167.67 16.52C169.723 18.5467 170.75 21.04 170.75 24C170.75 26.96 169.723 29.4667 167.67 31.52ZM156.27 27.96C157.31 29 158.603 29.52 160.15 29.52C161.696 29.52 162.99 29 164.03 27.96C165.07 26.92 165.59 25.6 165.59 24C165.59 22.4 165.07 21.08 164.03 20.04C162.99 19 161.696 18.48 160.15 18.48C158.603 18.48 157.31 19 156.27 20.04C155.256 21.08 154.75 22.4 154.75 24C154.75 25.6 155.256 26.92 156.27 27.96ZM185.5 13.44C187.686 13.44 189.486 14.1733 190.9 15.64C192.34 17.1067 193.06 19.1333 193.06 21.72V34H187.9V22.36C187.9 21.0267 187.54 20.0133 186.82 19.32C186.1 18.6 185.14 18.24 183.94 18.24C182.606 18.24 181.54 18.6533 180.74 19.48C179.94 20.3067 179.54 21.5467 179.54 23.2V34H174.38V14H179.54V16.24C180.793 14.3733 182.78 13.44 185.5 13.44Z" fill="#F8F8FB"/>
<path opacity="0.8" d="M20.0205 41C8.97512 41 0.0205002 32.0456 0.0205002 20.9995C0.0205002 9.95339 8.97412 0.999996 20.0205 0.999996" fill="#246BFD"/>
<path d="M20.2559 41C17.47 41 14.1875 32.4306 14.1875 21.3845C14.1875 10.3384 17.47 0.999996 20.2559 0.999996C23.0419 0.999996 24.7139 9.95438 24.7139 20.9995C24.7139 32.0446 23.0419 41 20.2559 41Z" fill="#246BFD"/>
<g filter="url(#filter0_d_128_393)">
<path d="M35.827 22.9679C35.8829 24.5972 36.0368 26.222 36.2879 27.8344C36.3706 28.3496 36.4636 28.8648 36.598 29.3711C36.6744 29.6671 36.7582 29.9987 36.9328 30.2593C37.0059 30.3748 37.114 30.4664 37.2429 30.5218C37.3061 30.5494 37.3748 30.5637 37.4444 30.5637C37.5139 30.5637 37.5827 30.5494 37.6459 30.5218C37.9229 30.4152 38.0531 30.1172 38.143 29.8448C38.2633 29.4498 38.3538 29.0471 38.4138 28.6398C38.648 27.1743 38.7977 25.6976 38.8623 24.2164C38.9649 22.3182 38.9746 20.4181 38.8912 18.516C38.8344 16.9702 38.6947 15.4283 38.4727 13.8962C38.409 13.4334 38.3183 12.9745 38.2009 12.5214C38.1213 12.2332 38.0211 11.8592 37.7337 11.6944C37.3607 11.4792 37.0103 11.7437 36.8532 12.0664C36.6957 12.4269 36.5789 12.8024 36.505 13.1866C36.2032 14.5377 36.0502 15.9253 35.9397 17.302C35.7894 19.1871 35.7518 21.0788 35.827 22.9679ZM36.8067 18.7331C36.846 17.9212 36.9073 17.1106 36.9907 16.3013C37.0279 15.947 37.0692 15.5937 37.1168 15.2414C37.1168 15.196 37.1281 15.1515 37.1343 15.1061C37.1343 15.0943 37.1343 15.0854 37.1343 15.0785C37.1343 15.0716 37.1343 15.0627 37.1343 15.0519L37.1653 14.8377C37.1881 14.6877 37.2118 14.5387 37.2367 14.3906C37.2904 14.0719 37.3493 13.7531 37.4206 13.4373L37.4423 13.5527C37.4898 13.8103 37.5302 14.0699 37.5684 14.3304V14.3472V14.366C37.5746 14.4064 37.5798 14.4469 37.5849 14.4864C37.5942 14.5564 37.6035 14.6255 37.6118 14.6946C37.6325 14.8545 37.6511 15.0154 37.6697 15.1752C37.7523 15.9154 37.8144 16.6556 37.8609 17.3997C37.9828 19.1966 38.0162 20.9941 37.9611 22.7923C37.9167 24.3457 37.8195 25.9011 37.6273 27.4436C37.6159 27.5275 37.6056 27.6104 37.5942 27.6943C37.5942 27.717 37.5787 27.8078 37.5756 27.8344C37.557 27.9637 37.5374 28.094 37.5167 28.2233C37.4892 28.397 37.4585 28.57 37.4247 28.7424C37.3875 28.5746 37.3531 28.4062 37.3214 28.2371C37.2677 27.9539 37.2181 27.6706 37.1767 27.3854L37.1395 27.1288C37.1395 27.1288 37.1395 27.1169 37.1395 27.1091C37.1333 27.0676 37.1281 27.0261 37.1219 26.9847C37.0992 26.8136 37.0775 26.6429 37.0568 26.4725C36.9652 25.6994 36.8963 24.9243 36.8501 24.1473C36.7334 22.3446 36.7189 20.5372 36.8067 18.7331Z" fill="#FF7F41"/>
</g>
<path d="M30.3167 37.842C27.8161 37.842 25.7889 30.3018 25.7889 20.9994C25.7889 11.697 27.8161 4.15782 30.3167 4.15782C32.8172 4.15782 34.21 11.698 34.21 20.9994C34.21 30.3008 32.8125 37.842 30.3167 37.842Z" fill="#246BFD"/>
<defs>
<filter id="filter0_d_128_393" x="28.7891" y="1.61646" width="23.1582" height="38.9473" filterUnits="userSpaceOnUse" color-interpolation-filters="sRGB">
<feFlood flood-opacity="0" result="BackgroundImageFix"/>
<feColorMatrix in="SourceAlpha" type="matrix" values="0 0 0 0 0 0 0 0 0 0 0 0 0 0 0 0 0 0 127 0" result="hardAlpha"/>
<feOffset dx="3"/>
<feGaussianBlur stdDeviation="5"/>
<feComposite in2="hardAlpha" operator="out"/>
<feColorMatrix type="matrix" values="0 0 0 0 1 0 0 0 0 0.498039 0 0 0 0 0.254902 0 0 0 1 0"/>
<feBlend mode="normal" in2="BackgroundImageFix" result="effect1_dropShadow_128_393"/>
<feBlend mode="normal" in="SourceGraphic" in2="effect1_dropShadow_128_393" result="shape"/>
</filter>
</defs>
</svg>
